<?xml version="1.0" encoding="utf-8"?>
<!-- Generator: Adobe Illustrator 23.0.1, SVG Export Plug-In . SVG Version: 6.00 Build 0)  -->
<svg version="1.1" id="Layer_1" xmlns="http://www.w3.org/2000/svg" xmlns:xlink="http://www.w3.org/1999/xlink" x="0px" y="0px"
	 viewBox="0 0 360 360" style="enable-background:new 0 0 360 360;" xml:space="preserve">
<style type="text/css">
	.st0{stroke:#000000;stroke-width:0.75;stroke-miterlimit:10;}
	.st1{font-family:'MyriadPro-Regular';}
	.st2{font-size:17px;}
	.st3{fill:none;stroke:#000000;stroke-miterlimit:10;}
</style>
<g>
	<g>
		<path class="st0" d="M89.7,25.1c-0.1,0-0.7,0-1.6,0c-1,0-2.4,0-4.4,0c0,1.7,0,2.9,0,3.8c0,0.9,0,2,0,3.5c0,1.4,0,2.9,0,4.4
			c0,1.5,0,2.5,0,3h-2c0-0.5,0-1.5,0-3c0-1.5,0-3,0-4.4c0-1.4,0-2.5,0-3.4s0-2.1,0-3.9c-1.7,0-3.1,0-4.2,0c-1.1,0-1.7,0-1.8,0v-1.7
			c0.8,0,1.9,0,3.1,0c1.2,0,2.5,0,3.8,0c2,0,3.6,0,4.9,0c1.3,0,2,0,2.1,0V25.1z"/>
		<path class="st0" d="M102.2,39.8h-1.9c0-0.2,0-1,0-2.2c0-1.2,0-2,0-2.4c0-0.4,0-1,0-1.9c0-0.8,0-1.4,0-1.8c0-0.9-0.2-1.6-0.5-2
			c-0.3-0.4-0.9-0.6-1.7-0.6c-0.5,0-1.1,0.1-1.8,0.4c-0.7,0.3-1.5,0.7-2.3,1.1l0,9.4H92c0-0.3,0-1.6,0-3.8c0-2.2,0-4.1,0-5.5
			c0-0.9,0-2.1,0-3.6c0-1.4,0-3.1,0-5H94l0,6.9l0,0c1.2-0.7,2.1-1.1,2.9-1.4c0.7-0.3,1.4-0.4,1.9-0.4c1,0,1.9,0.3,2.5,1
			c0.6,0.7,0.9,1.6,0.9,2.7c0,1,0,1.9,0,2.7c0,0.7,0,1.3,0,1.8c0,0.7,0,1.6,0,2.6C102.1,38.8,102.2,39.4,102.2,39.8z"/>
		<path class="st0" d="M116.1,33.1h-8.8c0,0.9,0.2,1.7,0.5,2.4c0.4,0.7,0.9,1.3,1.6,1.8c0.5,0.3,1,0.5,1.6,0.7
			c0.6,0.2,1.3,0.2,2.2,0.2c0.5,0,0.9,0,1.3,0c0.4,0,0.6,0,0.7,0l-0.2,1.6c-0.1,0-0.3,0-0.6,0c-0.4,0-0.8,0-1.3,0
			c-1.3,0-2.4-0.2-3.4-0.5c-1-0.3-1.8-0.8-2.4-1.4c-0.5-0.5-1-1.1-1.3-1.9c-0.4-0.8-0.6-1.6-0.6-2.6c0-0.9,0.1-1.8,0.4-2.5
			c0.3-0.7,0.7-1.4,1.2-2.1c0.5-0.6,1.1-1,1.8-1.3c0.7-0.3,1.5-0.5,2.2-0.5c0.8,0,1.4,0.1,2,0.3c0.6,0.2,1.1,0.6,1.5,1
			c0.5,0.5,0.8,1.2,1.1,1.9C115.9,31.2,116.1,32.1,116.1,33.1z M114.2,31.8c-0.1-1-0.5-1.8-1-2.4c-0.6-0.6-1.3-0.9-2.2-0.9
			c-0.9,0-1.7,0.3-2.3,0.9c-0.6,0.6-1,1.4-1.3,2.4H114.2z"/>
		<path class="st0" d="M137,38.3c0,0.1,0,0.3-0.1,0.6c0,0.3-0.1,0.7-0.1,1.1c-0.1,0-0.1,0-0.2,0c-0.1,0-0.1,0-0.2,0
			c-2,0-3.8-0.2-5.3-0.8c-1.5-0.5-2.8-1.2-3.8-2.2c-0.7-0.7-1.2-1.4-1.6-2.4c-0.4-0.9-0.6-2-0.6-3.1c0-1.1,0.2-2,0.6-2.9
			c0.4-0.9,0.9-1.6,1.6-2.3c0.9-0.9,2.2-1.7,3.8-2.2c1.6-0.6,3.3-0.8,5.1-0.8c0.1,0,0.2,0,0.3,0c0.1,0,0.2,0,0.2,0
			c0,0.1,0,0.4,0,0.7c0,0.3,0.1,0.7,0.1,1c-0.1,0-0.2,0-0.2,0s-0.1,0-0.2,0c-1,0-2.1,0.1-3.2,0.3c-1.1,0.2-2,0.6-2.8,1
			c-1,0.6-1.8,1.3-2.4,2.3c-0.6,0.9-0.8,1.9-0.8,3c0,1.1,0.2,2.1,0.7,3c0.5,0.9,1.3,1.7,2.4,2.3c0.9,0.5,1.9,0.9,3,1.1
			c1.1,0.2,2.2,0.3,3.2,0.3c0,0,0.1,0,0.2,0S136.9,38.3,137,38.3z"/>
		<path class="st0" d="M150.8,33.6c0,0.9-0.2,1.8-0.5,2.7c-0.3,0.9-0.8,1.6-1.5,2.2c-0.5,0.5-1.1,0.9-1.8,1.2
			c-0.7,0.3-1.4,0.4-2.2,0.4c-0.8,0-1.5-0.1-2.2-0.4c-0.7-0.3-1.3-0.7-1.8-1.2c-0.6-0.6-1.1-1.3-1.4-2.2c-0.3-0.9-0.5-1.8-0.5-2.8
			c0-0.9,0.1-1.8,0.4-2.6c0.3-0.8,0.7-1.5,1.3-2.1c0.5-0.6,1.2-1,1.9-1.3c0.7-0.3,1.5-0.5,2.3-0.5c0.8,0,1.6,0.1,2.3,0.4
			c0.7,0.3,1.3,0.7,1.8,1.3c0.6,0.6,1.1,1.4,1.4,2.2C150.7,31.8,150.8,32.6,150.8,33.6z M148.9,33.7c0-0.8-0.1-1.5-0.4-2.2
			c-0.2-0.7-0.6-1.3-1.2-1.8c-0.3-0.3-0.7-0.5-1.1-0.7c-0.4-0.2-0.9-0.3-1.4-0.3c-0.6,0-1,0.1-1.5,0.3c-0.4,0.2-0.8,0.5-1.2,0.8
			c-0.4,0.4-0.8,1-1,1.7c-0.2,0.7-0.4,1.4-0.4,2.1c0,0.8,0.1,1.6,0.4,2.3c0.3,0.7,0.7,1.3,1.2,1.8c0.3,0.3,0.7,0.5,1.1,0.7
			c0.4,0.2,0.9,0.2,1.3,0.2c0.5,0,1-0.1,1.4-0.3c0.4-0.2,0.8-0.4,1.2-0.8c0.5-0.5,0.8-1,1.1-1.7C148.8,35.1,148.9,34.4,148.9,33.7z"
			/>
		<path class="st0" d="M161.3,23.4c0,0-0.1,0-0.3,0c-0.1,0-0.3,0-0.3,0c-0.8,0-1.4,0.1-1.8,0.2c-0.4,0.1-0.8,0.4-1.2,0.7
			c-0.3,0.3-0.5,0.6-0.6,1c-0.1,0.4-0.2,0.9-0.2,1.5v0.5h4.2v1.4h-4.2c0,2.6,0,5.1,0,7.3c0,2.3,0,3.5,0,3.6h-1.9c0-0.1,0-1.3,0-3.4
			c0-2.2,0-4.7,0-7.5h-2.4v-1.4h2.4v-0.6c0-0.7,0.1-1.4,0.3-1.9c0.2-0.6,0.5-1.1,1-1.6c0.4-0.4,0.9-0.8,1.6-1
			c0.7-0.3,1.5-0.4,2.5-0.4c0.1,0,0.2,0,0.4,0c0.1,0,0.2,0,0.3,0L161.3,23.4z"/>
		<path class="st0" d="M170.5,23.4c0,0-0.1,0-0.3,0c-0.1,0-0.3,0-0.3,0c-0.8,0-1.4,0.1-1.8,0.2c-0.4,0.1-0.8,0.4-1.2,0.7
			c-0.3,0.3-0.5,0.6-0.6,1c-0.1,0.4-0.2,0.9-0.2,1.5v0.5h4.2v1.4H166c0,2.6,0,5.1,0,7.3c0,2.3,0,3.5,0,3.6h-1.9c0-0.1,0-1.3,0-3.4
			c0-2.2,0-4.7,0-7.5h-2.4v-1.4h2.4v-0.6c0-0.7,0.1-1.4,0.3-1.9c0.2-0.6,0.5-1.1,1-1.6c0.4-0.4,0.9-0.8,1.6-1
			c0.7-0.3,1.5-0.4,2.5-0.4c0.1,0,0.2,0,0.4,0c0.1,0,0.2,0,0.3,0L170.5,23.4z"/>
		<path class="st0" d="M182.1,33.1h-8.8c0,0.9,0.2,1.7,0.5,2.4c0.4,0.7,0.9,1.3,1.6,1.8c0.5,0.3,1,0.5,1.6,0.7
			c0.6,0.2,1.3,0.2,2.2,0.2c0.5,0,0.9,0,1.3,0c0.4,0,0.6,0,0.7,0l-0.2,1.6c-0.1,0-0.3,0-0.6,0c-0.4,0-0.8,0-1.3,0
			c-1.3,0-2.4-0.2-3.4-0.5c-1-0.3-1.8-0.8-2.4-1.4c-0.5-0.5-1-1.1-1.3-1.9c-0.4-0.8-0.6-1.6-0.6-2.6c0-0.9,0.1-1.8,0.4-2.5
			c0.3-0.7,0.7-1.4,1.2-2.1c0.5-0.6,1.1-1,1.8-1.3c0.7-0.3,1.5-0.5,2.2-0.5c0.8,0,1.4,0.1,2,0.3c0.6,0.2,1.1,0.6,1.5,1
			c0.5,0.5,0.8,1.2,1.1,1.9C181.9,31.2,182.1,32.1,182.1,33.1z M180.2,31.8c-0.1-1-0.5-1.8-1-2.4c-0.6-0.6-1.3-0.9-2.2-0.9
			c-0.9,0-1.7,0.3-2.3,0.9c-0.6,0.6-1,1.4-1.3,2.4H180.2z"/>
		<path class="st0" d="M194.8,33.1H186c0,0.9,0.2,1.7,0.5,2.4c0.4,0.7,0.9,1.3,1.6,1.8c0.5,0.3,1,0.5,1.6,0.7
			c0.6,0.2,1.3,0.2,2.2,0.2c0.5,0,0.9,0,1.3,0s0.6,0,0.7,0l-0.2,1.6c-0.1,0-0.3,0-0.6,0c-0.4,0-0.8,0-1.3,0c-1.3,0-2.4-0.2-3.4-0.5
			c-1-0.3-1.8-0.8-2.4-1.4c-0.5-0.5-1-1.1-1.3-1.9c-0.4-0.8-0.6-1.6-0.6-2.6c0-0.9,0.1-1.8,0.4-2.5c0.3-0.7,0.7-1.4,1.2-2.1
			c0.5-0.6,1.1-1,1.8-1.3c0.7-0.3,1.5-0.5,2.2-0.5c0.8,0,1.4,0.1,2,0.3c0.6,0.2,1.1,0.6,1.5,1c0.5,0.5,0.8,1.2,1.1,1.9
			C194.7,31.2,194.8,32.1,194.8,33.1z M192.9,31.8c-0.1-1-0.5-1.8-1-2.4c-0.6-0.6-1.3-0.9-2.2-0.9c-0.9,0-1.7,0.3-2.3,0.9
			c-0.6,0.6-1,1.4-1.3,2.4H192.9z"/>
		<path class="st0" d="M216.5,35c0,0.8-0.2,1.5-0.6,2.2c-0.4,0.7-1,1.2-1.8,1.6c-0.7,0.4-1.5,0.6-2.3,0.8c-0.8,0.2-1.8,0.3-2.9,0.3
			c-0.8,0-1.6,0-2.5,0c-0.8,0-1.3,0-1.4-0.1c0-1.6,0-3,0-4.4c0-1.4,0-2.7,0-4c0-2.4,0-4.3,0-5.7c0-1.4,0-2.1,0-2.2
			c0.1,0,0.6,0,1.3-0.1c0.8,0,1.5,0,2.3,0c0.8,0,1.6,0.1,2.3,0.2c0.7,0.1,1.3,0.3,1.8,0.5c0.7,0.3,1.3,0.7,1.7,1.3
			c0.4,0.5,0.6,1.2,0.6,2c0,0.8-0.3,1.6-0.8,2.2c-0.5,0.6-1.1,1.1-1.8,1.3v0.1c0.6,0,1.1,0.2,1.6,0.4c0.5,0.2,1,0.5,1.4,0.9
			c0.3,0.4,0.6,0.7,0.8,1.2C216.4,33.8,216.5,34.3,216.5,35z M214.4,35c0-0.4-0.1-0.8-0.2-1.1c-0.1-0.3-0.4-0.6-0.7-0.9
			c-0.3-0.3-0.7-0.5-1.1-0.7s-1-0.3-1.6-0.3c-0.5,0-0.8,0-1.1,0c-0.3,0-0.5,0-0.6,0l-0.2-1.5c0.6,0,1.1-0.1,1.6-0.2
			c0.5-0.1,0.9-0.3,1.2-0.6c0.3-0.2,0.6-0.6,0.8-0.9c0.2-0.4,0.3-0.8,0.3-1.3c0-0.5-0.1-0.9-0.4-1.3c-0.2-0.4-0.6-0.6-1-0.9
			c-0.4-0.2-0.8-0.3-1.3-0.4c-0.5-0.1-1.1-0.1-1.7-0.1c-0.4,0-0.7,0-1.1,0c-0.3,0-0.5,0-0.6,0c0,1.2,0,2.4,0,3.8c0,1.3,0,2.3,0,2.9
			c0,1.4,0,2.8,0,4.2c0,1.4,0,2.2,0,2.3c0.2,0,0.4,0,0.7,0c0.3,0,0.5,0,0.8,0c0.9,0,1.8,0,2.6-0.1c0.8-0.1,1.5-0.3,2-0.6
			c0.5-0.3,0.8-0.6,1.1-1C214.3,36,214.4,35.6,214.4,35z"/>
		<path class="st0" d="M230.3,39.8h-1.9v-1.4l0,0c-0.6,0.4-1.3,0.8-2.1,1.2c-0.9,0.4-1.7,0.6-2.5,0.6c-1.1,0-2-0.3-2.6-1
			c-0.6-0.7-1-1.6-1-2.8c0-0.7,0-1.4,0-2.3c0-0.9,0-1.6,0-2c0-0.7,0-1.7,0-2.7c0-1.1,0-1.7,0-1.8h1.9c0,0.1,0,0.7,0,1.8
			c0,1.1,0,1.9,0,2.6c0,0.6,0,1.3,0,2.1c0,0.8,0,1.4,0,1.8c0,1,0.2,1.7,0.5,2.1c0.3,0.4,0.8,0.7,1.5,0.7c0.7,0,1.5-0.2,2.4-0.6
			c0.9-0.4,1.5-0.7,1.9-1c0-0.1,0-0.5,0-1.3c0-0.8,0-1.8,0-3c0-0.9,0-1.9,0-3.1c0-1.2,0-1.8,0-1.9h1.9c0,0.1,0,0.6,0,1.4
			c0,0.8,0,2.1,0,4c0,1,0,2,0,2.8C230.3,36.3,230.3,37.7,230.3,39.8z"/>
		<path class="st0" d="M241.5,38.3l-0.2,1.6c-0.1,0-0.2,0-0.4,0c-0.2,0-0.4,0-0.6,0c-1.7,0-2.9-0.3-3.8-1c-0.9-0.7-1.3-1.8-1.3-3.2
			c0-0.9,0-1.9,0-2.9c0-1,0-2.3,0-3.8h-2.1v-1.4h2.2v-2.9h1.8v2.9h4.4v1.4h-4.4c0,0.2,0,0.7,0,1.5c0,0.8,0,1.5,0,1.9
			c0,0.3,0,0.8,0,1.3c0,0.5,0,1.1,0,1.8c0,1.1,0.3,1.8,0.9,2.3c0.6,0.5,1.4,0.7,2.6,0.7c0.1,0,0.3,0,0.5,0
			C241.3,38.3,241.5,38.3,241.5,38.3z"/>
		<path class="st0" d="M251.3,38.3l-0.2,1.6c-0.1,0-0.2,0-0.4,0c-0.2,0-0.4,0-0.6,0c-1.7,0-2.9-0.3-3.8-1c-0.9-0.7-1.3-1.8-1.3-3.2
			c0-0.9,0-1.9,0-2.9c0-1,0-2.3,0-3.8H243v-1.4h2.2v-2.9h1.8v2.9h4.4v1.4h-4.4c0,0.2,0,0.7,0,1.5c0,0.8,0,1.5,0,1.9
			c0,0.3,0,0.8,0,1.3c0,0.5,0,1.1,0,1.8c0,1.1,0.3,1.8,0.9,2.3c0.6,0.5,1.4,0.7,2.6,0.7c0.1,0,0.3,0,0.5,0
			C251.1,38.3,251.3,38.3,251.3,38.3z"/>
		<path class="st0" d="M265.3,33.6c0,0.9-0.2,1.8-0.5,2.7c-0.3,0.9-0.8,1.6-1.5,2.2c-0.5,0.5-1.1,0.9-1.8,1.2s-1.4,0.4-2.2,0.4
			c-0.8,0-1.5-0.1-2.2-0.4c-0.7-0.3-1.3-0.7-1.8-1.2c-0.6-0.6-1.1-1.3-1.4-2.2c-0.3-0.9-0.5-1.8-0.5-2.8c0-0.9,0.1-1.8,0.4-2.6
			c0.3-0.8,0.7-1.5,1.3-2.1c0.5-0.6,1.2-1,1.9-1.3c0.7-0.3,1.5-0.5,2.3-0.5c0.8,0,1.6,0.1,2.3,0.4c0.7,0.3,1.3,0.7,1.8,1.3
			c0.6,0.6,1.1,1.4,1.4,2.2C265.1,31.8,265.3,32.6,265.3,33.6z M263.3,33.7c0-0.8-0.1-1.5-0.4-2.2c-0.2-0.7-0.6-1.3-1.2-1.8
			c-0.3-0.3-0.7-0.5-1.1-0.7c-0.4-0.2-0.9-0.3-1.4-0.3c-0.6,0-1.1,0.1-1.5,0.3c-0.4,0.2-0.8,0.5-1.2,0.8c-0.4,0.4-0.8,1-1,1.7
			c-0.2,0.7-0.4,1.4-0.4,2.1c0,0.8,0.1,1.6,0.4,2.3c0.3,0.7,0.7,1.3,1.2,1.8c0.3,0.3,0.7,0.5,1.1,0.7c0.4,0.2,0.9,0.2,1.3,0.2
			c0.5,0,1-0.1,1.4-0.3c0.4-0.2,0.8-0.4,1.2-0.8c0.5-0.5,0.8-1,1.1-1.7C263.2,35.1,263.3,34.4,263.3,33.7z"/>
		<path class="st0" d="M278.8,39.8h-1.9c0-0.2,0-1,0-2.3c0-1.3,0-2.1,0-2.4c0-0.4,0-1,0-1.9c0-0.8,0-1.4,0-1.8c0-0.9-0.2-1.6-0.5-2
			c-0.3-0.4-0.9-0.6-1.7-0.6c-0.5,0-1.1,0.1-1.8,0.4s-1.5,0.7-2.2,1.1c0,0.1,0,0.6,0,1.5c0,0.9,0,1.7,0,2.4c0,0.9,0,2.1,0,3.4
			c0,1.3,0,2,0,2.1h-1.9c0-0.1,0-0.6,0-1.5c0-0.9,0-2.3,0-4.2c0-0.9,0-1.9,0-3s0-2.4,0-3.7h1.9l0,1.4l0,0c1.1-0.7,2.1-1.1,2.8-1.4
			c0.8-0.3,1.4-0.4,1.9-0.4c1,0,1.9,0.3,2.5,1c0.6,0.7,0.9,1.6,0.9,2.7c0,1,0,1.9,0,2.7c0,0.7,0,1.3,0,1.8c0,0.7,0,1.7,0,2.8
			C278.7,39.1,278.8,39.7,278.8,39.8z"/>
		<path d="M93.4,90c0.9,0.5,2.1,1,3.4,1c1.9,0,3.1-1,3.1-2.5c0-1.4-0.8-2.2-2.8-2.9c-2.4-0.9-3.9-2.1-3.9-4.2c0-2.3,1.9-4,4.8-4
			c1.5,0,2.6,0.4,3.3,0.7l-0.5,1.6c-0.5-0.3-1.5-0.7-2.8-0.7c-2,0-2.8,1.2-2.8,2.2c0,1.4,0.9,2.1,2.9,2.8c2.5,1,3.8,2.2,3.8,4.3
			c0,2.3-1.7,4.2-5.2,4.2c-1.4,0-3-0.4-3.8-0.9L93.4,90z"/>
		<path d="M106.5,78.7c0,0.7-0.5,1.2-1.2,1.2c-0.7,0-1.2-0.5-1.2-1.2c0-0.7,0.5-1.2,1.2-1.2C106,77.5,106.5,78.1,106.5,78.7z
			 M104.4,92.3V81.7h1.9v10.6H104.4z"/>
		<path d="M109.5,84.6c0-1.1,0-2-0.1-2.9h1.7l0.1,1.8h0c0.5-1,1.8-2,3.5-2c1.5,0,3.7,0.9,3.7,4.5v6.3h-1.9v-6.1
			c0-1.7-0.6-3.1-2.5-3.1c-1.3,0-2.3,0.9-2.6,2c-0.1,0.2-0.1,0.6-0.1,0.9v6.4h-1.9V84.6z"/>
		<path d="M130.8,81.7c0,0.8-0.1,1.6-0.1,2.9v6.2c0,2.4-0.5,3.9-1.5,4.8c-1,1-2.5,1.3-3.9,1.3c-1.3,0-2.7-0.3-3.5-0.9l0.5-1.5
			c0.7,0.4,1.8,0.8,3.1,0.8c2,0,3.4-1,3.4-3.7v-1.2h0c-0.6,1-1.7,1.8-3.4,1.8c-2.6,0-4.5-2.2-4.5-5.2c0-3.6,2.3-5.6,4.8-5.6
			c1.8,0,2.8,1,3.3,1.8h0l0.1-1.6H130.8z M128.8,85.9c0-0.3,0-0.6-0.1-0.9c-0.4-1.1-1.3-2-2.7-2c-1.8,0-3.2,1.6-3.2,4
			c0,2.1,1.1,3.8,3.1,3.8c1.2,0,2.3-0.7,2.7-2c0.1-0.3,0.2-0.7,0.2-1V85.9z"/>
		<path d="M133.9,76.8h1.9v15.5h-1.9V76.8z"/>
		<path d="M140.1,87.4c0,2.6,1.7,3.7,3.6,3.7c1.4,0,2.2-0.2,2.9-0.5l0.3,1.4c-0.7,0.3-1.8,0.7-3.5,0.7c-3.3,0-5.2-2.1-5.2-5.3
			c0-3.2,1.9-5.7,5-5.7c3.5,0,4.4,3,4.4,5c0,0.4,0,0.7-0.1,0.9H140.1z M145.8,86c0-1.2-0.5-3.1-2.7-3.1c-1.9,0-2.8,1.8-3,3.1H145.8z
			"/>
		<path d="M154.7,77.7c0.9-0.2,2.1-0.3,3.7-0.3c1.9,0,3.3,0.4,4.1,1.2c0.8,0.7,1.3,1.8,1.3,3.1c0,1.3-0.4,2.4-1.1,3.2
			c-1,1.1-2.6,1.6-4.5,1.6c-0.6,0-1.1,0-1.5-0.1v5.9h-1.9V77.7z M156.6,84.9c0.4,0.1,0.9,0.2,1.6,0.2c2.3,0,3.7-1.1,3.7-3.2
			c0-1.9-1.4-2.9-3.5-2.9c-0.8,0-1.5,0.1-1.8,0.2V84.9z"/>
		<path d="M166.3,85c0-1.2,0-2.3-0.1-3.3h1.7l0.1,2.1h0.1c0.5-1.4,1.6-2.3,2.9-2.3c0.2,0,0.4,0,0.5,0.1v1.8c-0.2,0-0.4-0.1-0.7-0.1
			c-1.4,0-2.3,1-2.6,2.5c0,0.3-0.1,0.6-0.1,0.9v5.6h-1.9V85z"/>
		<path d="M174.5,87.4c0,2.6,1.7,3.7,3.6,3.7c1.4,0,2.2-0.2,2.9-0.5l0.3,1.4c-0.7,0.3-1.8,0.7-3.5,0.7c-3.3,0-5.2-2.1-5.2-5.3
			c0-3.2,1.9-5.7,5-5.7c3.5,0,4.4,3,4.4,5c0,0.4,0,0.7-0.1,0.9H174.5z M180.2,86c0-1.2-0.5-3.1-2.7-3.1c-1.9,0-2.8,1.8-3,3.1H180.2z
			"/>
		<path d="M184.2,90.4c0.6,0.4,1.6,0.8,2.5,0.8c1.4,0,2.1-0.7,2.1-1.6c0-0.9-0.5-1.4-2-1.9c-1.9-0.7-2.8-1.7-2.8-3
			c0-1.7,1.4-3.1,3.7-3.1c1.1,0,2,0.3,2.6,0.7l-0.5,1.4c-0.4-0.3-1.2-0.6-2.2-0.6c-1.1,0-1.8,0.7-1.8,1.4c0,0.9,0.6,1.3,2,1.8
			c1.8,0.7,2.8,1.6,2.8,3.2c0,1.9-1.4,3.2-4,3.2c-1.2,0-2.2-0.3-3-0.7L184.2,90.4z"/>
		<path d="M192.8,90.4c0.6,0.4,1.6,0.8,2.5,0.8c1.4,0,2.1-0.7,2.1-1.6c0-0.9-0.5-1.4-2-1.9c-1.9-0.7-2.8-1.7-2.8-3
			c0-1.7,1.4-3.1,3.7-3.1c1.1,0,2,0.3,2.6,0.7l-0.5,1.4c-0.4-0.3-1.2-0.6-2.2-0.6c-1.1,0-1.8,0.7-1.8,1.4c0,0.9,0.6,1.3,2,1.8
			c1.8,0.7,2.8,1.6,2.8,3.2c0,1.9-1.4,3.2-4,3.2c-1.2,0-2.2-0.3-3-0.7L192.8,90.4z"/>
		<path d="M210.6,77.1c-1.6,2.1-2.8,5-2.8,9c0,3.9,1.2,6.7,2.8,8.9h-1.5c-1.4-1.8-2.9-4.6-2.9-8.9c0-4.3,1.5-7.1,2.9-9H210.6z"/>
		<path d="M212.4,90.4c0.6,0.4,1.6,0.8,2.5,0.8c1.4,0,2.1-0.7,2.1-1.6c0-0.9-0.5-1.4-2-1.9c-1.9-0.7-2.8-1.7-2.8-3
			c0-1.7,1.4-3.1,3.7-3.1c1.1,0,2,0.3,2.6,0.7l-0.5,1.4c-0.4-0.3-1.2-0.6-2.2-0.6c-1.1,0-1.8,0.7-1.8,1.4c0,0.9,0.6,1.3,2,1.8
			c1.8,0.7,2.8,1.6,2.8,3.2c0,1.9-1.4,3.2-4,3.2c-1.2,0-2.2-0.3-3-0.7L212.4,90.4z"/>
		<path d="M221.3,76.8h1.9v6.6h0c0.3-0.5,0.8-1,1.4-1.4c0.6-0.3,1.2-0.5,2-0.5c1.4,0,3.7,0.9,3.7,4.5v6.3h-1.9v-6.1
			c0-1.7-0.6-3.2-2.5-3.2c-1.2,0-2.2,0.9-2.6,1.9c-0.1,0.3-0.1,0.5-0.1,0.9v6.4h-1.9V76.8z"/>
		<path d="M243,86.9c0,3.9-2.7,5.6-5.3,5.6c-2.9,0-5.1-2.1-5.1-5.5c0-3.5,2.3-5.6,5.3-5.6C241,81.5,243,83.7,243,86.9z M234.6,87
			c0,2.3,1.3,4.1,3.2,4.1c1.8,0,3.2-1.7,3.2-4.1c0-1.8-0.9-4.1-3.2-4.1C235.6,82.9,234.6,85,234.6,87z"/>
		<path d="M245.5,85c0-1.2,0-2.3-0.1-3.3h1.7l0.1,2.1h0.1c0.5-1.4,1.6-2.3,2.9-2.3c0.2,0,0.4,0,0.5,0.1v1.8c-0.2,0-0.4-0.1-0.7-0.1
			c-1.4,0-2.3,1-2.6,2.5c0,0.3-0.1,0.6-0.1,0.9v5.6h-1.9V85z"/>
		<path d="M255,78.7v3h2.8v1.5H255v5.7c0,1.3,0.4,2.1,1.4,2.1c0.5,0,0.9-0.1,1.1-0.1l0.1,1.4c-0.4,0.2-1,0.3-1.7,0.3
			c-0.9,0-1.6-0.3-2.1-0.8c-0.5-0.6-0.7-1.5-0.7-2.8v-5.8h-1.6v-1.5h1.6v-2.5L255,78.7z"/>
		<path d="M258.7,95c1.6-2.2,2.8-5,2.8-9c0-3.9-1.2-6.7-2.8-8.9h1.5c1.4,1.8,2.9,4.6,2.9,8.9c0,4.3-1.5,7.1-2.9,8.9H258.7z"/>
		<path d="M20.3,106h-5.4l-0.5,3.7c0.3,0,0.6-0.1,1.2-0.1c1.1,0,2.2,0.2,3.1,0.8c1.1,0.6,2,1.9,2,3.7c0,2.8-2.2,4.9-5.3,4.9
			c-1.6,0-2.9-0.4-3.5-0.9l0.5-1.5c0.6,0.4,1.8,0.8,3,0.8c1.8,0,3.4-1.2,3.4-3.1c0-1.8-1.2-3.2-4.1-3.2c-0.8,0-1.4,0.1-2,0.2
			l0.9-6.8h6.8V106z"/>
		<path d="M28.3,110.9c0-1.1,0-2-0.1-2.9h1.7l0.1,1.7H30c0.6-1,1.6-1.9,3.3-1.9c1.4,0,2.5,0.9,3,2.1h0c0.3-0.6,0.7-1.1,1.2-1.4
			c0.6-0.5,1.3-0.7,2.3-0.7c1.4,0,3.5,0.9,3.5,4.6v6.2h-1.9v-6c0-2-0.7-3.3-2.3-3.3c-1.1,0-1.9,0.8-2.3,1.8c-0.1,0.3-0.2,0.6-0.2,1
			v6.5h-1.9v-6.4c0-1.7-0.7-2.9-2.2-2.9c-1.2,0-2.1,1-2.4,1.9c-0.1,0.3-0.2,0.6-0.2,0.9v6.4h-1.9V110.9z"/>
		<path d="M48.7,105c0,0.7-0.5,1.2-1.2,1.2c-0.7,0-1.2-0.5-1.2-1.2c0-0.7,0.5-1.2,1.2-1.2C48.2,103.8,48.7,104.3,48.7,105z
			 M46.5,118.6V108h1.9v10.6H46.5z"/>
		<path d="M51.6,110.9c0-1.1,0-2-0.1-2.9h1.7l0.1,1.8h0c0.5-1,1.8-2,3.5-2c1.5,0,3.7,0.9,3.7,4.5v6.3h-1.9v-6.1
			c0-1.7-0.6-3.1-2.5-3.1c-1.3,0-2.3,0.9-2.6,2c-0.1,0.2-0.1,0.6-0.1,0.9v6.4h-1.9V110.9z"/>
		<path d="M72.7,115.7c0,1.1,0,2.1,0.1,2.9h-1.7l-0.1-1.7h0c-0.5,0.9-1.6,2-3.5,2c-1.7,0-3.7-0.9-3.7-4.6V108h1.9v5.9
			c0,2,0.6,3.4,2.4,3.4c1.3,0,2.2-0.9,2.5-1.8c0.1-0.3,0.2-0.6,0.2-1V108h1.9V115.7z"/>
		<path d="M78.2,105v3h2.8v1.5h-2.8v5.7c0,1.3,0.4,2.1,1.4,2.1c0.5,0,0.9-0.1,1.1-0.1l0.1,1.4c-0.4,0.2-1,0.3-1.7,0.3
			c-0.9,0-1.6-0.3-2.1-0.8c-0.5-0.6-0.7-1.5-0.7-2.8v-5.8h-1.6V108h1.6v-2.5L78.2,105z"/>
		<path d="M84.2,113.7c0,2.6,1.7,3.7,3.6,3.7c1.4,0,2.2-0.2,2.9-0.5l0.3,1.4c-0.7,0.3-1.8,0.7-3.5,0.7c-3.3,0-5.2-2.1-5.2-5.3
			c0-3.2,1.9-5.7,5-5.7c3.5,0,4.4,3,4.4,5c0,0.4,0,0.7-0.1,0.9H84.2z M89.8,112.3c0-1.2-0.5-3.1-2.7-3.1c-1.9,0-2.8,1.8-3,3.1H89.8z
			"/>
		<path d="M99.5,108l1.4,5.4c0.3,1.2,0.6,2.3,0.8,3.4h0.1c0.2-1.1,0.6-2.2,0.9-3.4l1.7-5.4h1.6l1.6,5.3c0.4,1.3,0.7,2.4,0.9,3.5h0.1
			c0.2-1.1,0.5-2.2,0.8-3.4l1.5-5.3h1.9l-3.4,10.6h-1.8l-1.6-5.1c-0.4-1.2-0.7-2.2-0.9-3.5h0c-0.3,1.3-0.6,2.4-1,3.5l-1.7,5h-1.8
			L97.5,108H99.5z"/>
		<path d="M120.7,118.6l-0.2-1.3h-0.1c-0.6,0.8-1.7,1.6-3.2,1.6c-2.1,0-3.2-1.5-3.2-3c0-2.6,2.3-4,6.4-3.9v-0.2
			c0-0.9-0.2-2.5-2.4-2.5c-1,0-2,0.3-2.8,0.8l-0.4-1.3c0.9-0.6,2.1-0.9,3.5-0.9c3.2,0,4,2.2,4,4.3v4c0,0.9,0,1.8,0.2,2.5H120.7z
			 M120.4,113.2c-2.1,0-4.5,0.3-4.5,2.4c0,1.2,0.8,1.8,1.8,1.8c1.4,0,2.3-0.9,2.6-1.8c0.1-0.2,0.1-0.4,0.1-0.6V113.2z"/>
		<path d="M125.4,111.3c0-1.2,0-2.3-0.1-3.3h1.7l0.1,2.1h0.1c0.5-1.4,1.6-2.3,2.9-2.3c0.2,0,0.4,0,0.5,0.1v1.8
			c-0.2,0-0.4-0.1-0.7-0.1c-1.4,0-2.3,1-2.6,2.5c0,0.3-0.1,0.6-0.1,0.9v5.6h-1.9V111.3z"/>
		<path d="M132.6,110.9c0-1.1,0-2-0.1-2.9h1.7l0.1,1.8h0c0.5-1,1.8-2,3.5-2c1.5,0,3.7,0.9,3.7,4.5v6.3h-1.9v-6.1
			c0-1.7-0.6-3.1-2.5-3.1c-1.3,0-2.3,0.9-2.6,2c-0.1,0.2-0.1,0.6-0.1,0.9v6.4h-1.9V110.9z"/>
		<path d="M146.9,105c0,0.7-0.5,1.2-1.2,1.2c-0.7,0-1.2-0.5-1.2-1.2c0-0.7,0.5-1.2,1.2-1.2C146.4,103.8,146.9,104.3,146.9,105z
			 M144.7,118.6V108h1.9v10.6H144.7z"/>
		<path d="M149.8,110.9c0-1.1,0-2-0.1-2.9h1.7l0.1,1.8h0c0.5-1,1.8-2,3.5-2c1.5,0,3.7,0.9,3.7,4.5v6.3h-1.9v-6.1
			c0-1.7-0.6-3.1-2.5-3.1c-1.3,0-2.3,0.9-2.6,2c-0.1,0.2-0.1,0.6-0.1,0.9v6.4h-1.9V110.9z"/>
		<path d="M171.1,108c0,0.8-0.1,1.6-0.1,2.9v6.2c0,2.4-0.5,3.9-1.5,4.8c-1,1-2.5,1.3-3.9,1.3c-1.3,0-2.7-0.3-3.5-0.9l0.5-1.5
			c0.7,0.4,1.8,0.8,3.1,0.8c2,0,3.4-1,3.4-3.7v-1.2h0c-0.6,1-1.7,1.8-3.4,1.8c-2.6,0-4.5-2.2-4.5-5.2c0-3.6,2.3-5.6,4.8-5.6
			c1.8,0,2.8,1,3.3,1.8h0l0.1-1.6H171.1z M169.1,112.2c0-0.3,0-0.6-0.1-0.9c-0.4-1.1-1.3-2-2.7-2c-1.8,0-3.2,1.6-3.2,4
			c0,2.1,1.1,3.8,3.1,3.8c1.2,0,2.3-0.7,2.7-2c0.1-0.3,0.2-0.7,0.2-1V112.2z"/>
		<path d="M173.9,117.5c0-0.8,0.5-1.4,1.3-1.4c0.8,0,1.3,0.6,1.3,1.4c0,0.8-0.5,1.4-1.3,1.4C174.4,118.8,173.9,118.2,173.9,117.5z
			 M174.4,114.4l-0.3-10.5h2.1l-0.3,10.5H174.4z"/>
		<path d="M194.3,118.1c-0.7,0.4-2.1,0.7-3.9,0.7c-4.2,0-7.3-2.6-7.3-7.5c0-4.6,3.1-7.8,7.7-7.8c1.8,0,3,0.4,3.5,0.7l-0.5,1.6
			c-0.7-0.4-1.8-0.6-3-0.6c-3.5,0-5.8,2.2-5.8,6.1c0,3.6,2.1,5.9,5.7,5.9c1.2,0,2.3-0.2,3.1-0.6L194.3,118.1z"/>
		<path d="M206.2,113.2c0,3.9-2.7,5.6-5.3,5.6c-2.9,0-5.1-2.1-5.1-5.5c0-3.5,2.3-5.6,5.3-5.6C204.1,107.8,206.2,110,206.2,113.2z
			 M197.8,113.3c0,2.3,1.3,4.1,3.2,4.1c1.8,0,3.2-1.7,3.2-4.1c0-1.8-0.9-4.1-3.2-4.1C198.8,109.2,197.8,111.3,197.8,113.3z"/>
		<path d="M215.2,118.6v-9.1h-4.4v9.1h-1.9v-9.1h-1.5V108h1.5v-0.4c0-1.5,0.3-2.8,1.2-3.6c0.6-0.6,1.5-1,2.7-1
			c0.6,0,1.2,0.2,1.5,0.4l-0.4,1.4c-0.3-0.1-0.7-0.3-1.1-0.3c-1.5,0-1.9,1.3-1.9,3v0.5h4.4v-0.5c0-1.5,0.4-2.8,1.2-3.7
			c0.7-0.7,1.7-1,2.6-1c0.7,0,1.3,0.2,1.6,0.3l-0.2,1.5c-0.3-0.1-0.7-0.2-1.2-0.2c-1.6,0-2.1,1.4-2.1,3.1v0.6h2.6v1.5h-2.5v9.1
			H215.2z"/>
		<path d="M222.5,113.7c0,2.6,1.7,3.7,3.6,3.7c1.4,0,2.2-0.2,2.9-0.5l0.3,1.4c-0.7,0.3-1.8,0.7-3.5,0.7c-3.3,0-5.2-2.1-5.2-5.3
			c0-3.2,1.9-5.7,5-5.7c3.5,0,4.4,3,4.4,5c0,0.4,0,0.7-0.1,0.9H222.5z M228.1,112.3c0-1.2-0.5-3.1-2.7-3.1c-1.9,0-2.8,1.8-3,3.1
			H228.1z"/>
		<path d="M233.4,113.7c0,2.6,1.7,3.7,3.6,3.7c1.4,0,2.2-0.2,2.9-0.5l0.3,1.4c-0.7,0.3-1.8,0.7-3.5,0.7c-3.3,0-5.2-2.1-5.2-5.3
			c0-3.2,1.9-5.7,5-5.7c3.5,0,4.4,3,4.4,5c0,0.4,0,0.7-0.1,0.9H233.4z M239.1,112.3c0-1.2-0.5-3.1-2.7-3.1c-1.9,0-2.8,1.8-3,3.1
			H239.1z"/>
		<path d="M250.1,105c0,0.7-0.5,1.2-1.2,1.2c-0.7,0-1.2-0.5-1.2-1.2c0-0.7,0.5-1.2,1.2-1.2C249.7,103.8,250.1,104.3,250.1,105z
			 M248,118.6V108h1.9v10.6H248z"/>
		<path d="M252.8,116.6c0.6,0.4,1.6,0.8,2.5,0.8c1.4,0,2.1-0.7,2.1-1.6c0-0.9-0.5-1.4-2-1.9c-1.9-0.7-2.8-1.7-2.8-3
			c0-1.7,1.4-3.1,3.7-3.1c1.1,0,2,0.3,2.6,0.7l-0.5,1.4c-0.4-0.3-1.2-0.6-2.2-0.6c-1.1,0-1.8,0.7-1.8,1.4c0,0.9,0.6,1.3,2,1.8
			c1.8,0.7,2.8,1.6,2.8,3.2c0,1.9-1.4,3.2-4,3.2c-1.2,0-2.2-0.3-3-0.7L252.8,116.6z"/>
		<path d="M266.3,118.6c0-0.7,0.1-1.8,0.1-2.7v-12.8h1.9v6.7h0c0.7-1.2,1.9-1.9,3.6-1.9c2.6,0,4.5,2.2,4.5,5.4
			c0,3.8-2.4,5.7-4.8,5.7c-1.5,0-2.8-0.6-3.5-2h-0.1l-0.1,1.8H266.3z M268.3,114.4c0,0.2,0,0.5,0.1,0.7c0.4,1.3,1.5,2.3,2.9,2.3
			c2,0,3.2-1.6,3.2-4.1c0-2.1-1.1-3.9-3.2-3.9c-1.3,0-2.5,0.9-2.9,2.4c0,0.2-0.1,0.5-0.1,0.8V114.4z"/>
		<path d="M278.9,111.3c0-1.2,0-2.3-0.1-3.3h1.7l0.1,2.1h0.1c0.5-1.4,1.6-2.3,2.9-2.3c0.2,0,0.4,0,0.5,0.1v1.8
			c-0.2,0-0.4-0.1-0.7-0.1c-1.4,0-2.3,1-2.6,2.5c0,0.3-0.1,0.6-0.1,0.9v5.6h-1.9V111.3z"/>
		<path d="M287.1,113.7c0,2.6,1.7,3.7,3.6,3.7c1.4,0,2.2-0.2,2.9-0.5l0.3,1.4c-0.7,0.3-1.8,0.7-3.5,0.7c-3.3,0-5.2-2.1-5.2-5.3
			c0-3.2,1.9-5.7,5-5.7c3.5,0,4.4,3,4.4,5c0,0.4,0,0.7-0.1,0.9H287.1z M292.8,112.3c0-1.2-0.5-3.1-2.7-3.1c-1.9,0-2.8,1.8-3,3.1
			H292.8z"/>
		<path d="M297.8,108l1.4,5.4c0.3,1.2,0.6,2.3,0.8,3.4h0.1c0.2-1.1,0.6-2.2,0.9-3.4l1.7-5.4h1.6l1.6,5.3c0.4,1.3,0.7,2.4,0.9,3.5
			h0.1c0.2-1.1,0.5-2.2,0.8-3.4l1.5-5.3h1.9l-3.4,10.6H306l-1.6-5.1c-0.4-1.2-0.7-2.2-0.9-3.5h0c-0.3,1.3-0.6,2.4-1,3.5l-1.7,5H299
			l-3.2-10.6H297.8z"/>
		<path d="M315.3,105c0,0.7-0.5,1.2-1.2,1.2c-0.7,0-1.2-0.5-1.2-1.2c0-0.7,0.5-1.2,1.2-1.2C314.8,103.8,315.3,104.3,315.3,105z
			 M313.1,118.6V108h1.9v10.6H313.1z"/>
		<path d="M318.2,110.9c0-1.1,0-2-0.1-2.9h1.7l0.1,1.8h0c0.5-1,1.8-2,3.5-2c1.5,0,3.7,0.9,3.7,4.5v6.3h-1.9v-6.1
			c0-1.7-0.6-3.1-2.5-3.1c-1.3,0-2.3,0.9-2.6,2c-0.1,0.2-0.1,0.6-0.1,0.9v6.4h-1.9V110.9z"/>
		<path d="M339.5,108c0,0.8-0.1,1.6-0.1,2.9v6.2c0,2.4-0.5,3.9-1.5,4.8c-1,1-2.5,1.3-3.9,1.3c-1.3,0-2.7-0.3-3.5-0.9l0.5-1.5
			c0.7,0.4,1.8,0.8,3.1,0.8c2,0,3.4-1,3.4-3.7v-1.2h0c-0.6,1-1.7,1.8-3.4,1.8c-2.6,0-4.5-2.2-4.5-5.2c0-3.6,2.3-5.6,4.8-5.6
			c1.8,0,2.8,1,3.3,1.8h0l0.1-1.6H339.5z M337.5,112.2c0-0.3,0-0.6-0.1-0.9c-0.4-1.1-1.3-2-2.7-2c-1.8,0-3.2,1.6-3.2,4
			c0,2.1,1.1,3.8,3.1,3.8c1.2,0,2.3-0.7,2.7-2c0.1-0.3,0.2-0.7,0.2-1V112.2z"/>
		<path d="M96.2,168.8c0.9,0.5,2.1,1,3.4,1c1.9,0,3.1-1,3.1-2.5c0-1.4-0.8-2.2-2.8-2.9c-2.4-0.9-3.9-2.1-3.9-4.2c0-2.3,1.9-4,4.8-4
			c1.5,0,2.6,0.4,3.3,0.7l-0.5,1.6c-0.5-0.3-1.5-0.7-2.8-0.7c-2,0-2.8,1.2-2.8,2.2c0,1.4,0.9,2.1,2.9,2.8c2.5,1,3.8,2.2,3.8,4.3
			c0,2.3-1.7,4.2-5.2,4.2c-1.4,0-3-0.4-3.8-0.9L96.2,168.8z"/>
		<path d="M109.3,157.6c0,0.7-0.5,1.2-1.2,1.2c-0.7,0-1.2-0.5-1.2-1.2c0-0.7,0.5-1.2,1.2-1.2C108.9,156.4,109.3,156.9,109.3,157.6z
			 M107.2,171.2v-10.6h1.9v10.6H107.2z"/>
		<path d="M112.3,163.4c0-1.1,0-2-0.1-2.9h1.7l0.1,1.8h0c0.5-1,1.8-2,3.5-2c1.5,0,3.7,0.9,3.7,4.5v6.3h-1.9V165
			c0-1.7-0.6-3.1-2.5-3.1c-1.3,0-2.3,0.9-2.6,2c-0.1,0.2-0.1,0.6-0.1,0.9v6.4h-1.9V163.4z"/>
		<path d="M133.6,160.6c0,0.8-0.1,1.6-0.1,2.9v6.2c0,2.4-0.5,3.9-1.5,4.8c-1,1-2.5,1.3-3.9,1.3c-1.3,0-2.7-0.3-3.5-0.9l0.5-1.5
			c0.7,0.4,1.8,0.8,3.1,0.8c2,0,3.4-1,3.4-3.7v-1.2h0c-0.6,1-1.7,1.8-3.4,1.8c-2.6,0-4.5-2.2-4.5-5.2c0-3.6,2.3-5.6,4.8-5.6
			c1.8,0,2.8,1,3.3,1.8h0l0.1-1.6H133.6z M131.6,164.7c0-0.3,0-0.6-0.1-0.9c-0.4-1.1-1.3-2-2.7-2c-1.8,0-3.2,1.6-3.2,4
			c0,2.1,1.1,3.8,3.1,3.8c1.2,0,2.3-0.7,2.7-2c0.1-0.3,0.2-0.7,0.2-1V164.7z"/>
		<path d="M136.7,155.6h1.9v15.5h-1.9V155.6z"/>
		<path d="M142.9,166.2c0,2.6,1.7,3.7,3.6,3.7c1.4,0,2.2-0.2,2.9-0.5l0.3,1.4c-0.7,0.3-1.8,0.7-3.5,0.7c-3.3,0-5.2-2.1-5.2-5.3
			c0-3.2,1.9-5.7,5-5.7c3.5,0,4.4,3,4.4,5c0,0.4,0,0.7-0.1,0.9H142.9z M148.6,164.8c0-1.2-0.5-3.1-2.7-3.1c-1.9,0-2.8,1.8-3,3.1
			H148.6z"/>
		<path d="M157.6,156.6c0.9-0.2,2.1-0.3,3.7-0.3c1.9,0,3.3,0.4,4.1,1.2c0.8,0.7,1.3,1.8,1.3,3.1c0,1.3-0.4,2.4-1.1,3.2
			c-1,1.1-2.6,1.6-4.5,1.6c-0.6,0-1.1,0-1.5-0.1v5.9h-1.9V156.6z M159.5,163.7c0.4,0.1,0.9,0.2,1.6,0.2c2.3,0,3.7-1.1,3.7-3.2
			c0-1.9-1.4-2.9-3.5-2.9c-0.8,0-1.5,0.1-1.8,0.2V163.7z"/>
		<path d="M169.1,163.9c0-1.2,0-2.3-0.1-3.3h1.7l0.1,2.1h0.1c0.5-1.4,1.6-2.3,2.9-2.3c0.2,0,0.4,0,0.5,0.1v1.8
			c-0.2,0-0.4-0.1-0.7-0.1c-1.4,0-2.3,1-2.6,2.5c0,0.3-0.1,0.6-0.1,0.9v5.6h-1.9V163.9z"/>
		<path d="M177.4,166.2c0,2.6,1.7,3.7,3.6,3.7c1.4,0,2.2-0.2,2.9-0.5l0.3,1.4c-0.7,0.3-1.8,0.7-3.5,0.7c-3.3,0-5.2-2.1-5.2-5.3
			c0-3.2,1.9-5.7,5-5.7c3.5,0,4.4,3,4.4,5c0,0.4,0,0.7-0.1,0.9H177.4z M183,164.8c0-1.2-0.5-3.1-2.7-3.1c-1.9,0-2.8,1.8-3,3.1H183z"
			/>
		<path d="M187,169.2c0.6,0.4,1.6,0.8,2.5,0.8c1.4,0,2.1-0.7,2.1-1.6c0-0.9-0.5-1.4-2-1.9c-1.9-0.7-2.8-1.7-2.8-3
			c0-1.7,1.4-3.1,3.7-3.1c1.1,0,2,0.3,2.6,0.7l-0.5,1.4c-0.4-0.3-1.2-0.6-2.2-0.6c-1.1,0-1.8,0.7-1.8,1.4c0,0.9,0.6,1.3,2,1.8
			c1.8,0.7,2.8,1.6,2.8,3.2c0,1.9-1.4,3.2-4,3.2c-1.2,0-2.2-0.3-3-0.7L187,169.2z"/>
		<path d="M195.7,169.2c0.6,0.4,1.6,0.8,2.5,0.8c1.4,0,2.1-0.7,2.1-1.6c0-0.9-0.5-1.4-2-1.9c-1.9-0.7-2.8-1.7-2.8-3
			c0-1.7,1.4-3.1,3.7-3.1c1.1,0,2,0.3,2.6,0.7l-0.5,1.4c-0.4-0.3-1.2-0.6-2.2-0.6c-1.1,0-1.8,0.7-1.8,1.4c0,0.9,0.6,1.3,2,1.8
			c1.8,0.7,2.8,1.6,2.8,3.2c0,1.9-1.4,3.2-4,3.2c-1.2,0-2.2-0.3-3-0.7L195.7,169.2z"/>
		<path d="M213.4,156c-1.6,2.1-2.8,5-2.8,9c0,3.9,1.2,6.7,2.8,8.9h-1.5c-1.4-1.8-2.9-4.6-2.9-8.9c0-4.3,1.5-7.1,2.9-9H213.4z"/>
		<path d="M215.5,155.6h1.9v15.5h-1.9V155.6z"/>
		<path d="M230.2,165.8c0,3.9-2.7,5.6-5.3,5.6c-2.9,0-5.1-2.1-5.1-5.5c0-3.5,2.3-5.6,5.3-5.6C228.2,160.3,230.2,162.5,230.2,165.8z
			 M221.8,165.9c0,2.3,1.3,4.1,3.2,4.1c1.8,0,3.2-1.7,3.2-4.1c0-1.8-0.9-4.1-3.2-4.1C222.8,161.8,221.8,163.9,221.8,165.9z"/>
		<path d="M232.7,163.4c0-1.1,0-2-0.1-2.9h1.7l0.1,1.8h0c0.5-1,1.8-2,3.5-2c1.5,0,3.7,0.9,3.7,4.5v6.3h-1.9V165
			c0-1.7-0.6-3.1-2.5-3.1c-1.3,0-2.3,0.9-2.6,2c-0.1,0.2-0.1,0.6-0.1,0.9v6.4h-1.9V163.4z"/>
		<path d="M253.9,160.6c0,0.8-0.1,1.6-0.1,2.9v6.2c0,2.4-0.5,3.9-1.5,4.8c-1,1-2.5,1.3-3.9,1.3c-1.3,0-2.7-0.3-3.5-0.9l0.5-1.5
			c0.7,0.4,1.8,0.8,3.1,0.8c2,0,3.4-1,3.4-3.7v-1.2h0c-0.6,1-1.7,1.8-3.4,1.8c-2.6,0-4.5-2.2-4.5-5.2c0-3.6,2.3-5.6,4.8-5.6
			c1.8,0,2.8,1,3.3,1.8h0l0.1-1.6H253.9z M251.9,164.7c0-0.3,0-0.6-0.1-0.9c-0.4-1.1-1.3-2-2.7-2c-1.8,0-3.2,1.6-3.2,4
			c0,2.1,1.1,3.8,3.1,3.8c1.2,0,2.3-0.7,2.7-2c0.1-0.3,0.2-0.7,0.2-1V164.7z"/>
		<path d="M255.9,173.8c1.6-2.2,2.8-5,2.8-9c0-3.9-1.2-6.7-2.8-8.9h1.5c1.4,1.8,2.9,4.6,2.9,8.9c0,4.3-1.5,7.1-2.9,8.9H255.9z"/>
		<path d="M84.8,182.7h7.9v1.6h-6v4.9h5.6v1.6h-5.6v6.7h-1.9V182.7z"/>
		<path d="M95.4,190.1c0-1.2,0-2.3-0.1-3.3H97l0.1,2.1h0.1c0.5-1.4,1.6-2.3,2.9-2.3c0.2,0,0.4,0,0.5,0.1v1.8c-0.2,0-0.4-0.1-0.7-0.1
			c-1.4,0-2.3,1-2.6,2.5c0,0.3-0.1,0.6-0.1,0.9v5.6h-1.9V190.1z"/>
		<path d="M103.6,192.5c0,2.6,1.7,3.7,3.6,3.7c1.4,0,2.2-0.2,2.9-0.5l0.3,1.4c-0.7,0.3-1.8,0.7-3.5,0.7c-3.3,0-5.2-2.1-5.2-5.3
			c0-3.2,1.9-5.7,5-5.7c3.5,0,4.4,3,4.4,5c0,0.4,0,0.7-0.1,0.9H103.6z M109.2,191.1c0-1.2-0.5-3.1-2.7-3.1c-1.9,0-2.8,1.8-3,3.1
			H109.2z"/>
		<path d="M113.2,195.5c0.6,0.4,1.6,0.8,2.5,0.8c1.4,0,2.1-0.7,2.1-1.6c0-0.9-0.5-1.4-2-1.9c-1.9-0.7-2.8-1.7-2.8-3
			c0-1.7,1.4-3.1,3.7-3.1c1.1,0,2,0.3,2.6,0.7l-0.5,1.4c-0.4-0.3-1.2-0.6-2.2-0.6c-1.1,0-1.8,0.7-1.8,1.4c0,0.9,0.6,1.3,2,1.8
			c1.8,0.7,2.8,1.6,2.8,3.2c0,1.9-1.4,3.2-4,3.2c-1.2,0-2.2-0.3-3-0.7L113.2,195.5z"/>
		<path d="M122.2,181.9h1.9v6.6h0c0.3-0.5,0.8-1,1.4-1.4c0.6-0.3,1.2-0.5,2-0.5c1.4,0,3.7,0.9,3.7,4.5v6.3h-1.9v-6.1
			c0-1.7-0.6-3.2-2.5-3.2c-1.2,0-2.2,0.9-2.6,1.9c-0.1,0.3-0.1,0.5-0.1,0.9v6.4h-1.9V181.9z"/>
		<path d="M146.5,197c-0.5,0.3-1.6,0.6-3,0.6c-3.2,0-5.3-2.2-5.3-5.4c0-3.3,2.2-5.6,5.7-5.6c1.1,0,2.1,0.3,2.7,0.5l-0.4,1.5
			c-0.5-0.3-1.2-0.5-2.2-0.5c-2.4,0-3.7,1.8-3.7,4c0,2.5,1.6,4,3.7,4c1.1,0,1.8-0.3,2.4-0.5L146.5,197z"/>
		<path d="M158.4,192c0,3.9-2.7,5.6-5.3,5.6c-2.9,0-5.1-2.1-5.1-5.5c0-3.5,2.3-5.6,5.3-5.6C156.3,186.6,158.4,188.8,158.4,192z
			 M150,192.2c0,2.3,1.3,4.1,3.2,4.1c1.8,0,3.2-1.7,3.2-4.1c0-1.8-0.9-4.1-3.2-4.1S150,190.1,150,192.2z"/>
		<path d="M167.3,197.4v-9.1h-4.4v9.1H161v-9.1h-1.5v-1.5h1.5v-0.4c0-1.5,0.4-2.8,1.2-3.6c0.6-0.6,1.5-1,2.7-1
			c0.6,0,1.2,0.2,1.5,0.4l-0.4,1.4c-0.3-0.1-0.7-0.3-1.1-0.3c-1.5,0-1.9,1.3-1.9,3v0.5h4.4v-0.5c0-1.5,0.4-2.8,1.2-3.7
			c0.7-0.7,1.7-1,2.6-1c0.7,0,1.3,0.2,1.6,0.3l-0.2,1.5c-0.3-0.1-0.7-0.2-1.2-0.2c-1.6,0-2.1,1.4-2.1,3.1v0.6h2.6v1.5h-2.5v9.1
			H167.3z"/>
		<path d="M174.6,192.5c0,2.6,1.7,3.7,3.6,3.7c1.4,0,2.2-0.2,2.9-0.5l0.3,1.4c-0.7,0.3-1.8,0.7-3.5,0.7c-3.3,0-5.2-2.1-5.2-5.3
			c0-3.2,1.9-5.7,5-5.7c3.5,0,4.4,3,4.4,5c0,0.4,0,0.7-0.1,0.9H174.6z M180.3,191.1c0-1.2-0.5-3.1-2.7-3.1c-1.9,0-2.8,1.8-3,3.1
			H180.3z"/>
		<path d="M185.6,192.5c0,2.6,1.7,3.7,3.6,3.7c1.4,0,2.2-0.2,2.9-0.5l0.3,1.4c-0.7,0.3-1.8,0.7-3.5,0.7c-3.3,0-5.2-2.1-5.2-5.3
			c0-3.2,1.9-5.7,5-5.7c3.5,0,4.4,3,4.4,5c0,0.4,0,0.7-0.1,0.9H185.6z M191.2,191.1c0-1.2-0.5-3.1-2.7-3.1c-1.9,0-2.8,1.8-3,3.1
			H191.2z"/>
		<path d="M202.3,183.9c0,0.7-0.5,1.2-1.2,1.2c-0.7,0-1.2-0.5-1.2-1.2c0-0.7,0.5-1.2,1.2-1.2C201.8,182.6,202.3,183.2,202.3,183.9z
			 M200.1,197.4v-10.6h1.9v10.6H200.1z"/>
		<path d="M205,195.5c0.6,0.4,1.6,0.8,2.5,0.8c1.4,0,2.1-0.7,2.1-1.6c0-0.9-0.5-1.4-2-1.9c-1.9-0.7-2.8-1.7-2.8-3
			c0-1.7,1.4-3.1,3.7-3.1c1.1,0,2,0.3,2.6,0.7l-0.5,1.4c-0.4-0.3-1.2-0.6-2.2-0.6c-1.1,0-1.8,0.7-1.8,1.4c0,0.9,0.6,1.3,2,1.8
			c1.8,0.7,2.8,1.6,2.8,3.2c0,1.9-1.4,3.2-4,3.2c-1.2,0-2.2-0.3-3-0.7L205,195.5z"/>
		<path d="M218.6,190.1c0-1.2,0-2.3-0.1-3.3h1.7l0.1,2.1h0.1c0.5-1.4,1.6-2.3,2.9-2.3c0.2,0,0.4,0,0.5,0.1v1.8
			c-0.2,0-0.4-0.1-0.7-0.1c-1.4,0-2.3,1-2.6,2.5c0,0.3-0.1,0.6-0.1,0.9v5.6h-1.9V190.1z"/>
		<path d="M226.8,192.5c0,2.6,1.7,3.7,3.6,3.7c1.4,0,2.2-0.2,2.9-0.5l0.3,1.4c-0.7,0.3-1.8,0.7-3.5,0.7c-3.3,0-5.2-2.1-5.2-5.3
			c0-3.2,1.9-5.7,5-5.7c3.5,0,4.4,3,4.4,5c0,0.4,0,0.7-0.1,0.9H226.8z M232.5,191.1c0-1.2-0.5-3.1-2.7-3.1c-1.9,0-2.8,1.8-3,3.1
			H232.5z"/>
		<path d="M242.6,197.4l-0.2-1.3h-0.1c-0.6,0.8-1.7,1.6-3.2,1.6c-2.1,0-3.2-1.5-3.2-3c0-2.6,2.3-4,6.4-3.9v-0.2
			c0-0.9-0.2-2.5-2.4-2.5c-1,0-2,0.3-2.8,0.8l-0.4-1.3c0.9-0.6,2.1-0.9,3.5-0.9c3.2,0,4,2.2,4,4.3v4c0,0.9,0,1.8,0.2,2.5H242.6z
			 M242.3,192c-2.1,0-4.5,0.3-4.5,2.4c0,1.2,0.8,1.8,1.8,1.8c1.4,0,2.3-0.9,2.6-1.8c0.1-0.2,0.1-0.4,0.1-0.6V192z"/>
		<path d="M256.4,181.9v12.8c0,0.9,0,2,0.1,2.7h-1.7l-0.1-1.8h0c-0.6,1.2-1.9,2.1-3.6,2.1c-2.6,0-4.5-2.2-4.5-5.4
			c0-3.5,2.2-5.7,4.8-5.7c1.6,0,2.7,0.8,3.2,1.6h0v-6.3H256.4z M254.5,191.1c0-0.2,0-0.6-0.1-0.8c-0.3-1.2-1.3-2.2-2.8-2.2
			c-2,0-3.2,1.8-3.2,4.1c0,2.1,1.1,3.9,3.1,3.9c1.3,0,2.5-0.9,2.8-2.3c0.1-0.3,0.1-0.5,0.1-0.8V191.1z"/>
		<path d="M260.3,186.8l2.3,6.3c0.2,0.7,0.5,1.5,0.7,2.2h0c0.2-0.6,0.4-1.4,0.7-2.2l2.1-6.2h2l-2.9,7.6c-1.4,3.6-2.3,5.5-3.6,6.6
			c-0.9,0.8-1.9,1.2-2.4,1.2l-0.5-1.6c0.5-0.2,1.1-0.5,1.7-0.9c0.5-0.4,1.2-1.2,1.6-2.1c0.1-0.2,0.2-0.4,0.2-0.5s0-0.3-0.1-0.5
			l-3.9-9.8H260.3z"/>
		<path d="M269.6,196.3c0-0.8,0.5-1.4,1.3-1.4c0.8,0,1.3,0.6,1.3,1.4c0,0.8-0.5,1.4-1.3,1.4C270.1,197.7,269.6,197.1,269.6,196.3z
			 M270.1,193.2l-0.3-10.5h2.1l-0.3,10.5H270.1z"/>
		<path d="M120.4,235.4c1.2-0.2,2.5-0.3,4.1-0.3c2.7,0,4.7,0.6,6,1.8c1.3,1.2,2.1,2.9,2.1,5.3c0,2.4-0.7,4.4-2.1,5.7
			c-1.4,1.4-3.7,2.1-6.5,2.1c-1.4,0-2.5-0.1-3.5-0.2V235.4z M122.3,248.5c0.5,0.1,1.2,0.1,1.9,0.1c4.1,0,6.3-2.3,6.3-6.3
			c0-3.5-1.9-5.7-6-5.7c-1,0-1.7,0.1-2.2,0.2V248.5z"/>
		<path d="M144.5,244.6c0,3.9-2.7,5.6-5.3,5.6c-2.9,0-5.1-2.1-5.1-5.5c0-3.5,2.3-5.6,5.3-5.6C142.4,239.1,144.5,241.4,144.5,244.6z
			 M136.1,244.7c0,2.3,1.3,4.1,3.2,4.1c1.8,0,3.2-1.7,3.2-4.1c0-1.8-0.9-4.1-3.2-4.1S136.1,242.7,136.1,244.7z"/>
		<path d="M155.8,247.1c0,1.1,0,2.1,0.1,2.9h-1.7l-0.1-1.7h0c-0.5,0.9-1.6,2-3.5,2c-1.7,0-3.7-0.9-3.7-4.6v-6.2h1.9v5.9
			c0,2,0.6,3.4,2.4,3.4c1.3,0,2.2-0.9,2.5-1.8c0.1-0.3,0.2-0.6,0.2-1v-6.5h1.9V247.1z"/>
		<path d="M158.9,250c0-0.7,0.1-1.8,0.1-2.7v-12.8h1.9v6.7h0c0.7-1.2,1.9-1.9,3.6-1.9c2.6,0,4.5,2.2,4.5,5.4c0,3.8-2.4,5.7-4.8,5.7
			c-1.5,0-2.8-0.6-3.5-2h-0.1l-0.1,1.8H158.9z M160.9,245.7c0,0.2,0,0.5,0.1,0.7c0.4,1.3,1.5,2.3,2.9,2.3c2,0,3.2-1.6,3.2-4.1
			c0-2.1-1.1-3.9-3.2-3.9c-1.3,0-2.5,0.9-2.9,2.4c0,0.2-0.1,0.5-0.1,0.8V245.7z"/>
		<path d="M171.4,234.4h1.9V250h-1.9V234.4z"/>
		<path d="M177.7,245c0,2.6,1.7,3.7,3.6,3.7c1.4,0,2.2-0.2,2.9-0.5l0.3,1.4c-0.7,0.3-1.8,0.7-3.5,0.7c-3.3,0-5.2-2.1-5.2-5.3
			c0-3.2,1.9-5.7,5-5.7c3.5,0,4.4,3,4.4,5c0,0.4,0,0.7-0.1,0.9H177.7z M183.3,243.7c0-1.2-0.5-3.1-2.7-3.1c-1.9,0-2.8,1.8-3,3.1
			H183.3z"/>
		<path d="M192.3,235.4c0.9-0.2,2.1-0.3,3.7-0.3c1.9,0,3.3,0.4,4.1,1.2c0.8,0.7,1.3,1.8,1.3,3.1c0,1.3-0.4,2.4-1.1,3.2
			c-1,1.1-2.6,1.6-4.5,1.6c-0.6,0-1.1,0-1.5-0.1v5.9h-1.9V235.4z M194.2,242.5c0.4,0.1,0.9,0.2,1.6,0.2c2.3,0,3.7-1.1,3.7-3.2
			c0-1.9-1.4-2.9-3.5-2.9c-0.8,0-1.5,0.1-1.8,0.2V242.5z"/>
		<path d="M203.9,242.7c0-1.2,0-2.3-0.1-3.3h1.7l0.1,2.1h0.1c0.5-1.4,1.6-2.3,2.9-2.3c0.2,0,0.4,0,0.5,0.1v1.8
			c-0.2,0-0.4-0.1-0.7-0.1c-1.4,0-2.3,1-2.6,2.5c0,0.3-0.1,0.6-0.1,0.9v5.6h-1.9V242.7z"/>
		<path d="M212.1,245c0,2.6,1.7,3.7,3.6,3.7c1.4,0,2.2-0.2,2.9-0.5l0.3,1.4c-0.7,0.3-1.8,0.7-3.5,0.7c-3.3,0-5.2-2.1-5.2-5.3
			c0-3.2,1.9-5.7,5-5.7c3.5,0,4.4,3,4.4,5c0,0.4,0,0.7-0.1,0.9H212.1z M217.8,243.7c0-1.2-0.5-3.1-2.7-3.1c-1.9,0-2.8,1.8-3,3.1
			H217.8z"/>
		<path d="M221.7,248c0.6,0.4,1.6,0.8,2.5,0.8c1.4,0,2.1-0.7,2.1-1.6c0-0.9-0.5-1.4-2-1.9c-1.9-0.7-2.8-1.7-2.8-3
			c0-1.7,1.4-3.1,3.7-3.1c1.1,0,2,0.3,2.6,0.7l-0.5,1.4c-0.4-0.3-1.2-0.6-2.2-0.6c-1.1,0-1.8,0.7-1.8,1.4c0,0.9,0.6,1.3,2,1.8
			c1.8,0.7,2.8,1.6,2.8,3.2c0,1.9-1.4,3.2-4,3.2c-1.2,0-2.2-0.3-3-0.7L221.7,248z"/>
		<path d="M230.4,248c0.6,0.4,1.6,0.8,2.5,0.8c1.4,0,2.1-0.7,2.1-1.6c0-0.9-0.5-1.4-2-1.9c-1.9-0.7-2.8-1.7-2.8-3
			c0-1.7,1.4-3.1,3.7-3.1c1.1,0,2,0.3,2.6,0.7l-0.5,1.4c-0.4-0.3-1.2-0.6-2.2-0.6c-1.1,0-1.8,0.7-1.8,1.4c0,0.9,0.6,1.3,2,1.8
			c1.8,0.7,2.8,1.6,2.8,3.2c0,1.9-1.4,3.2-4,3.2c-1.2,0-2.2-0.3-3-0.7L230.4,248z"/>
		<path d="M61.3,261.7c0.9-0.2,2.1-0.3,3.7-0.3c1.9,0,3.3,0.4,4.1,1.2c0.8,0.7,1.3,1.8,1.3,3.1c0,1.3-0.4,2.4-1.1,3.2
			c-1,1.1-2.6,1.6-4.5,1.6c-0.6,0-1.1,0-1.5-0.1v5.9h-1.9V261.7z M63.2,268.8c0.4,0.1,0.9,0.2,1.6,0.2c2.3,0,3.7-1.1,3.7-3.2
			c0-1.9-1.4-2.9-3.5-2.9c-0.8,0-1.5,0.1-1.8,0.2V268.8z"/>
		<path d="M78.7,276.3l-0.2-1.3h-0.1c-0.6,0.8-1.7,1.6-3.2,1.6c-2.1,0-3.2-1.5-3.2-3c0-2.6,2.3-4,6.4-3.9v-0.2
			c0-0.9-0.2-2.5-2.4-2.5c-1,0-2,0.3-2.8,0.8l-0.4-1.3c0.9-0.6,2.1-0.9,3.5-0.9c3.2,0,4,2.2,4,4.3v4c0,0.9,0,1.8,0.2,2.5H78.7z
			 M78.4,270.8c-2.1,0-4.5,0.3-4.5,2.4c0,1.2,0.8,1.8,1.8,1.8c1.4,0,2.3-0.9,2.6-1.8c0.1-0.2,0.1-0.4,0.1-0.6V270.8z"/>
		<path d="M83.4,268.5c0-1.1,0-2-0.1-2.9H85l0.1,1.8h0c0.5-1,1.8-2,3.5-2c1.5,0,3.7,0.9,3.7,4.5v6.3h-1.9v-6.1
			c0-1.7-0.6-3.1-2.5-3.1c-1.3,0-2.3,0.9-2.6,2c-0.1,0.2-0.1,0.6-0.1,0.9v6.4h-1.9V268.5z"/>
		<path d="M97.7,262.7c0,0.7-0.5,1.2-1.2,1.2c-0.7,0-1.2-0.5-1.2-1.2c0-0.7,0.5-1.2,1.2-1.2C97.2,261.5,97.7,262,97.7,262.7z
			 M95.6,276.3v-10.6h1.9v10.6H95.6z"/>
		<path d="M108.2,275.9c-0.5,0.3-1.6,0.6-3,0.6c-3.2,0-5.3-2.2-5.3-5.4c0-3.3,2.2-5.6,5.7-5.6c1.1,0,2.1,0.3,2.7,0.5l-0.4,1.5
			c-0.5-0.3-1.2-0.5-2.2-0.5c-2.4,0-3.7,1.8-3.7,4c0,2.5,1.6,4,3.7,4c1.1,0,1.8-0.3,2.4-0.5L108.2,275.9z"/>
		<path d="M110.1,275.1c0-0.8,0.5-1.4,1.3-1.4c0.8,0,1.3,0.6,1.3,1.4c0,0.8-0.5,1.4-1.3,1.4C110.6,276.5,110.1,275.9,110.1,275.1z
			 M110.7,272l-0.3-10.5h2.1l-0.3,10.5H110.7z"/>
		<path d="M132.8,268.7c0,5.1-3.1,7.8-6.9,7.8c-3.9,0-6.6-3-6.6-7.5c0-4.7,2.9-7.8,6.9-7.8C130.2,261.3,132.8,264.3,132.8,268.7z
			 M121.4,269c0,3.2,1.7,6,4.7,6c3,0,4.7-2.8,4.7-6.1c0-2.9-1.5-6-4.7-6C123,262.8,121.4,265.7,121.4,269z"/>
		<path d="M144.1,273.4c0,1.1,0,2.1,0.1,2.9h-1.7l-0.1-1.7h0c-0.5,0.9-1.6,2-3.5,2c-1.7,0-3.7-0.9-3.7-4.6v-6.2h1.9v5.9
			c0,2,0.6,3.4,2.4,3.4c1.3,0,2.2-0.9,2.5-1.8c0.1-0.3,0.2-0.6,0.2-1v-6.5h1.9V273.4z"/>
		<path d="M149.6,262.6v3h2.8v1.5h-2.8v5.7c0,1.3,0.4,2.1,1.4,2.1c0.5,0,0.9-0.1,1.1-0.1l0.1,1.4c-0.4,0.2-1,0.3-1.7,0.3
			c-0.9,0-1.6-0.3-2.1-0.8c-0.5-0.6-0.7-1.5-0.7-2.8v-5.8h-1.6v-1.5h1.6v-2.5L149.6,262.6z"/>
		<path d="M168.8,270.9c0,3.9-2.7,5.6-5.3,5.6c-2.9,0-5.1-2.1-5.1-5.5c0-3.5,2.3-5.6,5.3-5.6C166.7,265.4,168.8,267.6,168.8,270.9z
			 M160.4,271c0,2.3,1.3,4.1,3.2,4.1c1.8,0,3.2-1.7,3.2-4.1c0-1.8-0.9-4.1-3.2-4.1S160.4,269,160.4,271z"/>
		<path d="M171.4,276.3v-9.1h-1.5v-1.5h1.5v-0.5c0-1.5,0.3-2.8,1.2-3.7c0.7-0.7,1.7-1,2.6-1c0.7,0,1.3,0.2,1.6,0.3l-0.3,1.5
			c-0.3-0.1-0.7-0.2-1.2-0.2c-1.6,0-2.1,1.4-2.1,3.1v0.6h2.6v1.5h-2.6v9.1H171.4z"/>
		<path d="M182.5,276.3v-9.1H181v-1.5h1.5v-0.5c0-1.5,0.3-2.8,1.2-3.7c0.7-0.7,1.7-1,2.6-1c0.7,0,1.3,0.2,1.6,0.3l-0.3,1.5
			c-0.3-0.1-0.7-0.2-1.2-0.2c-1.6,0-2.1,1.4-2.1,3.1v0.6h2.6v1.5h-2.6v9.1H182.5z"/>
		<path d="M188.7,269c0-1.2,0-2.3-0.1-3.3h1.7l0.1,2.1h0.1c0.5-1.4,1.6-2.3,2.9-2.3c0.2,0,0.4,0,0.5,0.1v1.8c-0.2,0-0.4-0.1-0.7-0.1
			c-1.4,0-2.3,1-2.6,2.5c0,0.3-0.1,0.6-0.1,0.9v5.6h-1.9V269z"/>
		<path d="M196.9,271.3c0,2.6,1.7,3.7,3.6,3.7c1.4,0,2.2-0.2,2.9-0.5l0.3,1.4c-0.7,0.3-1.8,0.7-3.5,0.7c-3.3,0-5.2-2.1-5.2-5.3
			c0-3.2,1.9-5.7,5-5.7c3.5,0,4.4,3,4.4,5c0,0.4,0,0.7-0.1,0.9H196.9z M202.5,269.9c0-1.2-0.5-3.1-2.7-3.1c-1.9,0-2.8,1.8-3,3.1
			H202.5z"/>
		<path d="M206.5,274.3c0.6,0.4,1.6,0.8,2.5,0.8c1.4,0,2.1-0.7,2.1-1.6c0-0.9-0.5-1.4-2-1.9c-1.9-0.7-2.8-1.7-2.8-3
			c0-1.7,1.4-3.1,3.7-3.1c1.1,0,2,0.3,2.6,0.7l-0.5,1.4c-0.4-0.3-1.2-0.6-2.2-0.6c-1.1,0-1.8,0.7-1.8,1.4c0,0.9,0.6,1.3,2,1.8
			c1.8,0.7,2.8,1.6,2.8,3.2c0,1.9-1.4,3.2-4,3.2c-1.2,0-2.2-0.3-3-0.7L206.5,274.3z"/>
		<path d="M215.5,260.7h1.9v6.6h0c0.3-0.5,0.8-1,1.4-1.4c0.6-0.3,1.2-0.5,2-0.5c1.4,0,3.7,0.9,3.7,4.5v6.3h-1.9v-6.1
			c0-1.7-0.6-3.2-2.5-3.2c-1.2,0-2.2,0.9-2.6,1.9c-0.1,0.3-0.1,0.5-0.1,0.9v6.4h-1.9V260.7z"/>
		<path d="M239.8,275.9c-0.5,0.3-1.6,0.6-3,0.6c-3.2,0-5.3-2.2-5.3-5.4c0-3.3,2.2-5.6,5.7-5.6c1.1,0,2.1,0.3,2.7,0.5l-0.4,1.5
			c-0.5-0.3-1.2-0.5-2.2-0.5c-2.4,0-3.7,1.8-3.7,4c0,2.5,1.6,4,3.7,4c1.1,0,1.8-0.3,2.4-0.5L239.8,275.9z"/>
		<path d="M251.7,270.9c0,3.9-2.7,5.6-5.3,5.6c-2.9,0-5.1-2.1-5.1-5.5c0-3.5,2.3-5.6,5.3-5.6C249.6,265.4,251.7,267.6,251.7,270.9z
			 M243.2,271c0,2.3,1.3,4.1,3.2,4.1c1.8,0,3.2-1.7,3.2-4.1c0-1.8-0.9-4.1-3.2-4.1C244.2,266.9,243.2,269,243.2,271z"/>
		<path d="M260.6,276.3v-9.1h-4.4v9.1h-1.9v-9.1h-1.5v-1.5h1.5v-0.4c0-1.5,0.3-2.8,1.2-3.6c0.6-0.6,1.5-1,2.7-1
			c0.6,0,1.2,0.2,1.5,0.4l-0.4,1.4c-0.3-0.1-0.7-0.3-1.1-0.3c-1.5,0-1.9,1.3-1.9,3v0.5h4.4v-0.5c0-1.5,0.4-2.8,1.2-3.7
			c0.7-0.7,1.7-1,2.6-1c0.7,0,1.3,0.2,1.6,0.3l-0.2,1.5c-0.3-0.1-0.7-0.2-1.2-0.2c-1.6,0-2.1,1.4-2.1,3.1v0.6h2.6v1.5h-2.5v9.1
			H260.6z"/>
		<path d="M267.9,271.3c0,2.6,1.7,3.7,3.6,3.7c1.4,0,2.2-0.2,2.9-0.5l0.3,1.4c-0.7,0.3-1.8,0.7-3.5,0.7c-3.3,0-5.2-2.1-5.2-5.3
			c0-3.2,1.9-5.7,5-5.7c3.5,0,4.4,3,4.4,5c0,0.4,0,0.7-0.1,0.9H267.9z M273.6,269.9c0-1.2-0.5-3.1-2.7-3.1c-1.9,0-2.8,1.8-3,3.1
			H273.6z"/>
		<path d="M278.9,271.3c0,2.6,1.7,3.7,3.6,3.7c1.4,0,2.2-0.2,2.9-0.5l0.3,1.4c-0.7,0.3-1.8,0.7-3.5,0.7c-3.3,0-5.2-2.1-5.2-5.3
			c0-3.2,1.9-5.7,5-5.7c3.5,0,4.4,3,4.4,5c0,0.4,0,0.7-0.1,0.9H278.9z M284.5,269.9c0-1.2-0.5-3.1-2.7-3.1c-1.9,0-2.8,1.8-3,3.1
			H284.5z"/>
		<path d="M288.4,275.1c0-0.8,0.5-1.4,1.3-1.4c0.8,0,1.3,0.6,1.3,1.4c0,0.8-0.5,1.4-1.3,1.4C288.9,276.5,288.4,275.9,288.4,275.1z
			 M289,272l-0.3-10.5h2.1l-0.3,10.5H289z"/>
	</g>
</g>
<g transform="translate(-1)">
	<g>
		<g>
			<path d="M294.8,164.3c0-3.5,2.9-6.4,6.5-6.4c3.2,0,5.5-2.1,5.5-4.9v-1c-0.6-0.3-1.3-0.5-2-0.5h-0.5c-5.8,0-10.4,4.7-10.4,10.4
				c0,1,0.4,1.9,1,2.6V164.3z"/>
			<path d="M307.7,152.8v0.2c0,3.4-2.7,5.9-6.5,5.9c-3,0-5.5,2.4-5.5,5.4v1c0.6,0.3,1.3,0.5,2,0.5h0.5c5.8,0,10.4-4.7,10.4-10.4
				C308.7,154.4,308.4,153.5,307.7,152.8z"/>
			<path d="M286.3,154.7C286.3,154.7,286.3,154.7,286.3,154.7c-0.9,1.3-1.1,2.8-0.8,4.1c0.4,1.3,1.3,2.4,2.6,3l1,0.4
				c0.6-0.4,1.1-0.9,1.4-1.5l0.2-0.4c1.2-2.4,1.4-5.2,0.6-7.8c-0.9-2.7-2.9-4.8-5.5-6.1c-0.9-0.4-2-0.5-2.9-0.2l0.2,0.1
				C286.3,147.8,287.7,151.4,286.3,154.7z"/>
			<path d="M285,162.5c0.6,0.3,1.2,0.4,1.8,0.4c0.4,0,0.7-0.1,1.1-0.1l-0.2-0.1c-1.6-0.8-2.7-2.1-3.1-3.7c-0.4-1.6-0.1-3.4,0.8-4.8
				c1.2-2.7,0-5.8-2.9-7.1l-0.9-0.5c-0.6,0.4-1.1,0.9-1.4,1.5l-0.2,0.4c-1.2,2.4-1.4,5.2-0.6,7.8C280.4,159.1,282.3,161.3,285,162.5
				z"/>
			<path d="M288.4,169.4c2.5,2.5,5.2,2.5,7.6,0.2c0,0,0,0,0,0l0.7-0.5c-0.2-0.7-0.6-1.4-1.2-1.9l-0.4-0.3c-4.4-4-11.2-3.9-15.1,0.4
				c-0.7,0.7-1.1,1.6-1.1,2.5l0.2-0.1C282.3,166.7,285.6,166.7,288.4,169.4z"/>
			<path d="M287.7,170.2c-2.4-2.4-5.1-2.4-7.9,0.2l-0.7,0.5c0.2,0.7,0.6,1.4,1.1,1.9l0.4,0.3c0,0,0,0,0,0c2.1,1.8,4.7,2.7,7.4,2.7
				c2.8,0,5.6-1,7.7-3.1c0.7-0.7,1.1-1.6,1.1-2.5l-0.2,0.1C293.8,173.1,290.5,173,287.7,170.2z"/>
		</g>
	</g>
</g>
<text transform="matrix(1 0 0 1 312.9597 167.9075)" class="st1 st2">x1.5s</text>
<g transform="translate(-1)">
	<g>
		<g>
			<path d="M292.8,86.7c0-3.5,2.9-6.4,6.5-6.4c3.2,0,5.5-2.1,5.5-4.9v-1c-0.6-0.3-1.3-0.5-2-0.5h-0.5c-5.8,0-10.4,4.7-10.4,10.4
				c0,1,0.4,1.9,1,2.6V86.7z"/>
			<path d="M305.8,75.2v0.2c0,3.4-2.7,5.9-6.5,5.9c-3,0-5.5,2.4-5.5,5.4v1c0.6,0.3,1.3,0.5,2,0.5h0.5c5.8,0,10.4-4.7,10.4-10.4
				C306.7,76.8,306.4,75.9,305.8,75.2z"/>
			<path d="M284.3,77C284.3,77,284.3,77.1,284.3,77c-0.9,1.3-1.1,2.8-0.8,4.1c0.4,1.3,1.3,2.4,2.6,3l1,0.4c0.6-0.4,1.1-0.9,1.4-1.5
				l0.2-0.4c1.2-2.4,1.4-5.2,0.6-7.8c-0.9-2.7-2.9-4.8-5.5-6.1c-0.9-0.4-2-0.5-2.9-0.2l0.2,0.1C284.3,70.1,285.8,73.8,284.3,77z"/>
			<path d="M283,84.8c0.6,0.3,1.2,0.4,1.8,0.4c0.4,0,0.7-0.1,1.1-0.1l-0.2-0.1c-1.6-0.8-2.7-2.1-3.1-3.7c-0.4-1.6-0.1-3.4,0.8-4.8
				c1.2-2.7,0-5.8-2.9-7.1l-0.9-0.5c-0.6,0.4-1.1,0.9-1.4,1.5L278,71c-1.2,2.4-1.4,5.2-0.6,7.8C278.4,81.4,280.4,83.6,283,84.8z"/>
			<path d="M286.4,91.8c2.5,2.5,5.2,2.5,7.6,0.2c0,0,0,0,0,0l0.7-0.5c-0.2-0.7-0.6-1.4-1.2-1.9l-0.4-0.3c-4.4-4-11.2-3.9-15.1,0.4
				c-0.7,0.7-1.1,1.6-1.1,2.5l0.2-0.1C280.3,89.1,283.6,89,286.4,91.8z"/>
			<path d="M285.7,92.5c-2.4-2.4-5.1-2.4-7.9,0.2l-0.7,0.5c0.2,0.7,0.6,1.4,1.1,1.9l0.4,0.3c0,0,0,0,0,0c2.1,1.8,4.7,2.7,7.4,2.7
				c2.8,0,5.6-1,7.7-3.1c0.7-0.7,1.1-1.6,1.1-2.5l-0.2,0.1C291.8,95.4,288.5,95.4,285.7,92.5z"/>
		</g>
	</g>
</g>
<g transform="translate(-1)">
	<g>
		<g>
			<path d="M292.8,244.6c0-3.5,2.9-6.4,6.5-6.4c3.2,0,5.5-2.1,5.5-4.9v-1c-0.6-0.3-1.3-0.5-2-0.5h-0.5c-5.8,0-10.4,4.7-10.4,10.4
				c0,1,0.4,1.9,1,2.6V244.6z"/>
			<path d="M305.8,233.1v0.2c0,3.4-2.7,5.9-6.5,5.9c-3,0-5.5,2.4-5.5,5.4v1c0.6,0.3,1.3,0.5,2,0.5h0.5c5.8,0,10.4-4.7,10.4-10.4
				C306.8,234.7,306.4,233.8,305.8,233.1z"/>
			<path d="M284.3,234.9C284.3,234.9,284.3,234.9,284.3,234.9c-0.9,1.3-1.1,2.8-0.8,4.1c0.4,1.3,1.3,2.4,2.6,3l1,0.4
				c0.6-0.4,1.1-0.9,1.4-1.5l0.2-0.4c1.2-2.4,1.4-5.2,0.6-7.8c-0.9-2.7-2.9-4.8-5.5-6.1c-0.9-0.4-2-0.5-2.9-0.2l0.2,0.1
				C284.3,228,285.8,231.7,284.3,234.9z"/>
			<path d="M283,242.7c0.6,0.3,1.2,0.4,1.8,0.4c0.4,0,0.7-0.1,1.1-0.1l-0.2-0.1c-1.6-0.8-2.7-2.1-3.1-3.7c-0.4-1.6-0.1-3.4,0.8-4.8
				c1.2-2.7,0-5.8-2.9-7.1l-0.9-0.5c-0.6,0.4-1.1,0.9-1.4,1.5l-0.2,0.4c-1.2,2.4-1.4,5.2-0.6,7.8C278.4,239.3,280.4,241.5,283,242.7
				z"/>
			<path d="M286.4,249.7c2.5,2.5,5.2,2.5,7.6,0.2c0,0,0,0,0,0l0.7-0.5c-0.2-0.7-0.6-1.4-1.2-1.9l-0.4-0.3c-4.4-4-11.2-3.9-15.1,0.4
				c-0.7,0.7-1.1,1.6-1.1,2.5l0.2-0.1C280.3,247,283.6,246.9,286.4,249.7z"/>
			<path d="M285.7,250.4c-2.4-2.4-5.1-2.4-7.9,0.2l-0.7,0.5c0.2,0.7,0.6,1.4,1.1,1.9l0.4,0.3c0,0,0,0,0,0c2.1,1.8,4.7,2.7,7.4,2.7
				c2.8,0,5.6-1,7.7-3.1c0.7-0.7,1.1-1.6,1.1-2.5l-0.2,0.1C291.8,253.3,288.5,253.3,285.7,250.4z"/>
		</g>
	</g>
</g>
<g transform="translate(-1)">
	<g>
		<g>
			<path d="M332.7,246c0-3.5,2.9-6.4,6.5-6.4c3.2,0,5.5-2.1,5.5-4.9v-1c-0.6-0.3-1.3-0.5-2-0.5h-0.5c-5.8,0-10.4,4.7-10.4,10.4
				c0,1,0.4,1.9,1,2.6V246z"/>
			<path d="M345.7,234.5v0.2c0,3.4-2.7,5.9-6.5,5.9c-3,0-5.5,2.4-5.5,5.4v1c0.6,0.3,1.3,0.5,2,0.5h0.5c5.8,0,10.4-4.7,10.4-10.4
				C346.7,236.1,346.3,235.2,345.7,234.5z"/>
			<path d="M324.2,236.3C324.2,236.4,324.2,236.4,324.2,236.3c-0.9,1.3-1.1,2.8-0.8,4.1c0.4,1.3,1.3,2.4,2.6,3l1,0.4
				c0.6-0.4,1.1-0.9,1.4-1.5l0.2-0.4c1.2-2.4,1.4-5.2,0.6-7.8c-0.9-2.7-2.9-4.8-5.5-6.1c-0.9-0.4-2-0.5-2.9-0.2l0.2,0.1
				C324.2,229.5,325.7,233.1,324.2,236.3z"/>
			<path d="M322.9,244.2c0.6,0.3,1.2,0.4,1.8,0.4c0.4,0,0.7-0.1,1.1-0.1l-0.2-0.1c-1.6-0.8-2.7-2.1-3.1-3.7
				c-0.4-1.6-0.1-3.4,0.8-4.8c1.2-2.7,0-5.8-2.9-7.1l-0.9-0.5c-0.6,0.4-1.1,0.9-1.4,1.5l-0.2,0.4c-1.2,2.4-1.4,5.2-0.6,7.8
				C318.3,240.8,320.3,242.9,322.9,244.2z"/>
			<path d="M326.3,251.1c2.5,2.5,5.2,2.5,7.6,0.2c0,0,0,0,0,0l0.7-0.5c-0.2-0.7-0.6-1.4-1.2-1.9l-0.4-0.3c-4.4-4-11.2-3.9-15.1,0.4
				c-0.7,0.7-1.1,1.6-1.1,2.5l0.2-0.1C320.2,248.4,323.5,248.3,326.3,251.1z"/>
			<path d="M325.6,251.8c-2.4-2.4-5.1-2.4-7.9,0.2l-0.7,0.5c0.2,0.7,0.6,1.4,1.1,1.9l0.4,0.3c0,0,0,0,0,0c2.1,1.8,4.7,2.7,7.4,2.7
				c2.8,0,5.6-1,7.7-3.1c0.7-0.7,1.1-1.6,1.1-2.5l-0.2,0.1C331.7,254.8,328.4,254.7,325.6,251.8z"/>
		</g>
	</g>
</g>
<line class="st3" x1="86.7" y1="98.2" x2="267" y2="98.2"/>
<line class="st3" x1="91.7" y1="177.8" x2="272" y2="177.8"/>
<line class="st3" x1="88.1" y1="255.5" x2="268.4" y2="255.5"/>
<rect x="4.8" y="14.9" class="st3" width="350.3" height="292.2"/>
<g>
	<path d="M225.7,52.7c-0.6,0-1,0-1.3,0c-0.4,0-1,0-1.7,0c-0.2,0.2-0.3,0.4-0.6,0.6s-0.4,0.4-0.6,0.6c-0.2,0.2-0.4,0.4-0.5,0.5
		c-0.1,0.1-0.3,0.3-0.4,0.3c-0.5,0.5-0.9,0.9-1.1,1c-0.2,0.2-0.3,0.3-0.5,0.4s-0.3,0.2-0.5,0.2c-0.2,0-0.3-0.1-0.3-0.2
		c0-0.2,0.1-0.4,0.4-0.8s0.5-0.7,0.8-0.9s0.6-0.4,0.8-0.4c0.1,0,0.1,0,0.2,0.1l1.4-1.5c-0.2,0-0.4,0-0.7,0c-0.3,0-0.5,0-0.6-0.1
		s-0.1-0.1-0.1-0.2c0-0.2,0.2-0.5,0.7-1c0.2-0.2,0.5-0.4,0.7-0.5s0.6-0.1,1.2-0.1c-0.4,0-0.6,0.1-0.8,0.2c-0.1,0.1-0.2,0.2-0.2,0.3
		c0.1,0,0.3,0,0.4,0c0.1,0,0.3,0,0.5,0c0.2,0,0.3,0,0.4,0c0.8-0.8,1.5-1.5,2.2-2c0.7-0.6,1.3-1.1,2.1-1.6c0.7-0.5,1.5-1,2.3-1.4
		c0.2,0.2,0.2,0.4,0.2,0.7c0,0.2-0.1,0.4-0.2,0.7c-0.1,0.2-0.4,0.7-0.8,1.4c-0.4,0.7-0.8,1.4-1.2,2.2c0.1,0,0.2,0,0.3,0
		c0.1,0,0.2,0,0.3,0c0.3,0,0.4,0,0.5,0s0.1,0.1,0.1,0.1c0,0,0,0.1-0.1,0.2c-0.1,0.1-0.2,0.3-0.4,0.5c-0.2,0.2-0.4,0.5-0.6,0.7
		l-1.1,0.1c-0.6,1.1-0.9,1.7-0.9,1.8c0,0.2,0.1,0.3,0.3,0.3c0.1,0,0.5-0.2,1.3-0.6l-0.1,0.4c-0.4,0.3-0.7,0.5-0.9,0.7
		c-0.2,0.2-0.4,0.3-0.6,0.4c-0.2,0.1-0.3,0.2-0.4,0.3s-0.3,0.1-0.4,0.1c-0.2,0-0.3-0.1-0.5-0.2c-0.2-0.1-0.2-0.4-0.2-0.6
		c0-0.1,0-0.3,0.1-0.5s0.2-0.4,0.3-0.6C225.1,53.9,225.3,53.4,225.7,52.7z M224.3,51l2.4,0c0.3-0.5,0.5-0.9,0.7-1.1
		c0.2-0.3,0.4-0.6,0.6-1c0.2-0.3,0.4-0.6,0.5-0.9s0.3-0.5,0.5-0.8c-0.4,0.2-0.7,0.5-1.1,0.7s-0.8,0.6-1.2,1
		c-0.5,0.4-0.9,0.7-1.2,1.1C225.1,50.3,224.7,50.6,224.3,51z"/>
	<path d="M233.7,52.1c-0.9,1-1.3,1.6-1.3,2c0,0.2,0.1,0.3,0.3,0.3c0.1,0,0.3-0.1,0.6-0.2c0.2-0.1,0.6-0.4,1.1-0.8v0.5
		c-0.7,0.7-1.2,1.2-1.6,1.5s-0.7,0.5-0.9,0.5c-0.4,0-0.6-0.3-0.6-0.8c0-0.2,0-0.3,0.1-0.5s0.1-0.3,0.2-0.5s0.2-0.4,0.4-0.7
		s0.4-0.7,0.6-1c-0.3,0.1-0.6,0.4-1,0.8c-0.3,0.3-0.5,0.5-0.7,0.8s-0.4,0.5-0.6,0.8c-0.2,0.3-0.4,0.5-0.5,0.6s-0.2,0.1-0.3,0.1
		c-0.2,0-0.3-0.2-0.4-0.5c-0.1-0.3-0.2-0.7-0.2-1.1c0-0.3,0-0.5,0.1-0.6c0.1-0.2,0.2-0.4,0.4-0.6c0.3-0.5,0.6-0.9,0.9-1.1
		c0.2-0.2,0.5-0.4,0.7-0.4c0.2,0,0.3,0,0.4,0.1c0.1,0.1,0.1,0.1,0.1,0.2c0,0,0,0.1,0,0.2s-0.1,0.1-0.1,0.1c0,0-0.1,0.1-0.2,0.3
		c-0.8,0.9-1.2,1.4-1.2,1.7c0,0.1,0,0.2,0.1,0.2c0.1,0,0.2-0.1,0.3-0.3c0.2-0.2,0.4-0.4,0.7-0.7s0.6-0.6,0.9-1
		c0.4-0.3,0.8-0.7,1.2-1c0.3-0.2,0.5-0.3,0.6-0.3c0.1,0,0.2,0.1,0.2,0.3c0.1,0.2,0.1,0.4,0.1,0.7C234.1,51.7,233.9,51.8,233.7,52.1z
		"/>
	<path d="M244.5,52.7c-0.6,0-1,0-1.3,0c-0.4,0-1,0-1.7,0c-0.2,0.2-0.3,0.4-0.6,0.6s-0.4,0.4-0.6,0.6c-0.2,0.2-0.4,0.4-0.5,0.5
		c-0.1,0.1-0.3,0.3-0.4,0.3c-0.5,0.5-0.9,0.9-1.1,1c-0.2,0.2-0.3,0.3-0.5,0.4s-0.3,0.2-0.5,0.2c-0.2,0-0.3-0.1-0.3-0.2
		c0-0.2,0.1-0.4,0.4-0.8s0.5-0.7,0.8-0.9s0.6-0.4,0.8-0.4c0.1,0,0.1,0,0.2,0.1l1.4-1.5c-0.2,0-0.4,0-0.7,0c-0.3,0-0.5,0-0.6-0.1
		s-0.1-0.1-0.1-0.2c0-0.2,0.2-0.5,0.7-1c0.2-0.2,0.5-0.4,0.7-0.5s0.6-0.1,1.2-0.1c-0.4,0-0.6,0.1-0.8,0.2c-0.1,0.1-0.2,0.2-0.2,0.3
		c0.1,0,0.3,0,0.4,0c0.1,0,0.3,0,0.5,0c0.2,0,0.3,0,0.4,0c0.8-0.8,1.5-1.5,2.2-2c0.7-0.6,1.3-1.1,2.1-1.6c0.7-0.5,1.5-1,2.3-1.4
		c0.2,0.2,0.2,0.4,0.2,0.7c0,0.2-0.1,0.4-0.2,0.7c-0.1,0.2-0.4,0.7-0.8,1.4c-0.4,0.7-0.8,1.4-1.2,2.2c0.1,0,0.2,0,0.3,0
		c0.1,0,0.2,0,0.3,0c0.3,0,0.4,0,0.5,0c0.1,0,0.1,0.1,0.1,0.1c0,0,0,0.1-0.1,0.2c-0.1,0.1-0.2,0.3-0.4,0.5c-0.2,0.2-0.4,0.5-0.6,0.7
		l-1.1,0.1c-0.6,1.1-0.9,1.7-0.9,1.8c0,0.2,0.1,0.3,0.3,0.3c0.1,0,0.5-0.2,1.3-0.6l-0.1,0.4c-0.4,0.3-0.7,0.5-0.9,0.7
		c-0.2,0.2-0.4,0.3-0.6,0.4c-0.2,0.1-0.3,0.2-0.4,0.3c-0.1,0.1-0.3,0.1-0.4,0.1c-0.2,0-0.3-0.1-0.5-0.2c-0.2-0.1-0.2-0.4-0.2-0.6
		c0-0.1,0-0.3,0.1-0.5s0.2-0.4,0.3-0.6C243.9,53.9,244.1,53.4,244.5,52.7z M243.1,51l2.4,0c0.3-0.5,0.5-0.9,0.7-1.1
		c0.2-0.3,0.4-0.6,0.6-1c0.2-0.3,0.4-0.6,0.5-0.9c0.1-0.2,0.3-0.5,0.5-0.8c-0.4,0.2-0.7,0.5-1.1,0.7s-0.8,0.6-1.2,1
		c-0.5,0.4-0.9,0.7-1.2,1.1C243.9,50.3,243.5,50.6,243.1,51z"/>
	<path d="M247.5,54v-0.5c0.3-0.3,0.5-0.7,0.8-1.2c-0.3,0-0.4-0.1-0.4-0.3c0-0.2,0.1-0.3,0.3-0.6c0.2-0.2,0.4-0.5,0.6-0.6
		c0.2-0.2,0.4-0.3,0.6-0.3c0.2,0,0.2,0.1,0.2,0.2c0,0.1,0,0.1,0,0.1c0,0-0.1,0.1-0.1,0.1c0,0,0,0.1,0.1,0.1c0.2,0,0.5,0,0.9-0.1
		c0.4-0.1,0.6-0.2,0.8-0.2c0.1,0,0.2,0.1,0.2,0.3c0.1,0.6,0.2,0.9,0.2,0.9c0,0.1,0,0.1-0.1,0.2c-0.1,0.1-0.2,0.2-0.5,0.4
		c-0.3,0.2-0.5,0.4-0.8,0.5c-0.2,0.2-0.5,0.4-0.9,0.7c0.3,0.1,0.5,0.3,0.6,0.4c0.1,0.2,0.2,0.4,0.3,0.7l1.8-1.4v0.5l-1.8,1.5
		c0,0.5-0.2,0.9-0.5,1.4c-0.3,0.5-0.6,0.9-1,1.3c-0.4,0.4-0.7,0.7-1.1,0.9s-0.6,0.4-0.8,0.4c-0.2,0-0.3-0.1-0.3-0.2
		c-0.1-0.1-0.1-0.3-0.1-0.5c0-0.3,0.1-0.6,0.2-0.8c0.1-0.3,0.3-0.5,0.5-0.8c0.2-0.3,0.5-0.5,0.9-0.8c0.3-0.3,0.8-0.6,1.3-1
		c-0.1-0.3-0.1-0.6-0.3-0.6c-0.1-0.1-0.3-0.2-0.6-0.3c-0.3-0.1-0.4-0.2-0.4-0.4c0-0.2,0.9-0.9,2.7-2.2c-0.3,0.1-0.6,0.1-1,0.2
		s-0.8,0.1-1.1,0.1c-0.2,0.4-0.5,0.7-0.7,1S247.7,53.9,247.5,54z M249.4,56.1c-0.4,0.2-0.7,0.5-1,0.8c-0.3,0.3-0.6,0.6-0.8,0.9
		c-0.2,0.3-0.4,0.4-0.4,0.5c0,0.1,0,0.2,0.1,0.2c0.2,0,0.4-0.1,0.7-0.3s0.5-0.5,0.8-0.8C249.1,57,249.3,56.6,249.4,56.1z"/>
	<path d="M253,52.1c0.7-0.7,1.5-1.2,2.2-1.5s1.2-0.5,1.6-0.5c0.1,0,0.2,0,0.3,0.1c0.1,0.1,0.2,0.2,0.2,0.3c0.1,0.1,0.1,0.2,0.1,0.2
		c0,0.1,0,0.2-0.1,0.2c-0.1,0-0.2,0.1-0.4,0.1c0,0.1,0.1,0.2,0.1,0.3s0.1,0.2,0.1,0.3s0,0.1,0,0.2c0,0.1-0.1,0.3-0.4,0.7
		c-0.2,0.3-0.4,0.6-0.5,0.7c-0.1,0.2-0.1,0.3-0.1,0.6c0,0.4,0.2,0.5,0.5,0.5c0.3,0,0.9-0.3,1.6-1v0.4c-1.2,1.4-2.1,2.1-2.7,2.1
		c-0.2,0-0.3-0.1-0.4-0.2c-0.1-0.1-0.1-0.3-0.1-0.6c0-0.4,0.1-0.9,0.4-1.7c-0.7,0.8-1.2,1.4-1.6,1.7c-0.3,0.3-0.6,0.5-0.9,0.5
		c-0.1,0-0.2-0.1-0.4-0.3s-0.3-0.4-0.4-0.7c-0.1-0.3-0.2-0.6-0.2-0.9c0-0.2,0-0.4,0.1-0.6c0-0.2,0.1-0.3,0.3-0.5
		S252.7,52.3,253,52.1z M256.5,51.3c-1.3,0.6-2.2,1.1-2.7,1.5c-0.5,0.4-0.8,0.8-0.8,1.3c0,0.2,0,0.3,0.1,0.4
		c0.1,0.1,0.1,0.2,0.2,0.2c0.1,0,0.1,0,0.3-0.1c0.5-0.3,1-0.7,1.4-1.2C255.4,52.8,255.9,52.1,256.5,51.3z"/>
	<path d="M259.2,53.4l-0.1,0.6c0,0.1,0,0.2,0,0.3c0,0.3,0.1,0.4,0.3,0.4c0.2,0,0.7-0.4,1.5-1.2c0-0.3,0.1-0.7,0.4-1.1
		c0.2-0.4,0.5-0.8,0.8-1.1c0.3-0.3,0.5-0.5,0.6-0.5c0.2,0,0.3,0.1,0.3,0.4c0,0.2,0,0.4-0.1,0.6c-0.1,0.2-0.2,0.5-0.4,0.8
		c-0.2,0.3-0.4,0.6-0.6,0.9c0.1,0.2,0.2,0.3,0.4,0.3c0.1,0,0.2,0,0.4-0.1c0.1-0.1,0.3-0.2,0.5-0.3v0.5c-0.3,0.2-0.5,0.4-0.6,0.4
		c-0.2,0.1-0.4,0.1-0.6,0.1c-0.1,0-0.3-0.1-0.5-0.2c-0.5,0.5-0.9,0.9-1.2,1.2s-0.6,0.4-0.8,0.4c-0.3,0-0.6-0.2-0.9-0.6
		c-0.2-0.4-0.4-0.8-0.4-1.3c0-0.6,0.4-1.4,1.1-2.3c0.2-0.3,0.4-0.5,0.5-0.6c0.1-0.1,0.3-0.2,0.5-0.2c0.1,0,0.3,0,0.4,0.1
		s0.2,0.1,0.2,0.2c0,0.2-0.2,0.6-0.5,1.1C260,52.6,259.6,53.1,259.2,53.4z"/>
	<path d="M264.3,53.7v0.2c0,0.3,0.1,0.5,0.2,0.7c0.1,0.2,0.3,0.2,0.6,0.2c0.2,0,0.5-0.1,0.7-0.2c0.3-0.1,0.5-0.3,0.8-0.4
		s0.6-0.4,0.9-0.7v0.4c-0.6,0.7-1.1,1.2-1.6,1.5c-0.5,0.4-1,0.5-1.5,0.5c-0.4,0-0.8-0.2-1-0.5S263,54.6,263,54c0-0.5,0.1-1,0.4-1.4
		c0.2-0.4,0.6-0.9,1.2-1.3c0.4-0.3,0.7-0.6,1.1-0.7s0.7-0.2,1-0.2c0.2,0,0.4,0.1,0.5,0.2c0.1,0.1,0.2,0.3,0.2,0.5
		c0,0.3-0.1,0.6-0.3,0.9c-0.2,0.3-0.6,0.6-1.1,0.9C265.5,53.1,264.9,53.4,264.3,53.7z M264.3,53.2c0.4-0.2,0.8-0.4,1.1-0.6
		s0.5-0.5,0.7-0.7c0.1-0.2,0.2-0.4,0.2-0.5c0-0.1-0.1-0.2-0.2-0.2c-0.1,0-0.2,0.1-0.4,0.2c-0.2,0.1-0.4,0.3-0.6,0.4
		c-0.2,0.2-0.4,0.4-0.5,0.6C264.5,52.6,264.4,52.9,264.3,53.2z"/>
	<path d="M268.3,52.1c0.7-0.7,1.5-1.2,2.2-1.5s1.2-0.5,1.6-0.5c0.1,0,0.2,0,0.3,0.1c0.1,0.1,0.2,0.2,0.2,0.3
		c0.1,0.1,0.1,0.2,0.1,0.2c0,0.1,0,0.2-0.1,0.2c-0.1,0-0.2,0.1-0.4,0.1c0,0.1,0.1,0.2,0.1,0.3s0.1,0.2,0.1,0.3s0,0.1,0,0.2
		c0,0.1-0.1,0.3-0.4,0.7c-0.2,0.3-0.4,0.6-0.5,0.7c-0.1,0.2-0.1,0.3-0.1,0.6c0,0.4,0.2,0.5,0.5,0.5c0.3,0,0.9-0.3,1.6-1v0.4
		c-1.2,1.4-2.1,2.1-2.7,2.1c-0.2,0-0.3-0.1-0.4-0.2c-0.1-0.1-0.1-0.3-0.1-0.6c0-0.4,0.1-0.9,0.4-1.7c-0.7,0.8-1.2,1.4-1.6,1.7
		c-0.3,0.3-0.6,0.5-0.9,0.5c-0.1,0-0.2-0.1-0.4-0.3s-0.3-0.4-0.4-0.7c-0.1-0.3-0.2-0.6-0.2-0.9c0-0.2,0-0.4,0.1-0.6
		c0-0.2,0.1-0.3,0.3-0.5S268,52.3,268.3,52.1z M271.8,51.3c-1.3,0.6-2.2,1.1-2.7,1.5c-0.5,0.4-0.8,0.8-0.8,1.3c0,0.2,0,0.3,0.1,0.4
		c0.1,0.1,0.1,0.2,0.2,0.2c0.1,0,0.1,0,0.3-0.1c0.5-0.3,1-0.7,1.4-1.2C270.7,52.8,271.2,52.1,271.8,51.3z"/>
	<path d="M280.7,51.3l2.2-3.3c-0.5,0-1,0.1-1.6,0.2s-1,0.3-1.4,0.4s-0.8,0.3-1.1,0.4c-0.3,0.1-0.5,0.2-0.7,0.3c0,0-0.1,0-0.1,0
		s-0.1-0.1-0.1-0.1c0,0,0.1-0.3,0.3-0.7c0.2-0.4,0.5-0.9,0.8-1.4c1.7-0.6,3.2-0.9,4.5-0.9c1.5,0,2.6,0.3,3.1,1
		c0.2,0.2,0.4,0.5,0.5,0.8c0.1,0.3,0.2,0.7,0.2,1c0,0.7-0.2,1.4-0.5,2c-0.3,0.6-0.7,1.1-1.3,1.6s-1.2,0.8-2,1s-1.6,0.3-2.5,0.3
		c-0.2,0-0.5,0-1-0.1l-0.7,1.2c0.1,0.1,0.1,0.2,0.1,0.2c0,0.2,0,0.3-0.1,0.4c-0.1,0.1-0.2,0.3-0.4,0.6c-0.2,0.2-0.3,0.4-0.3,0.5
		c-0.1,0.1-0.1,0.1-0.2,0.2c-0.1,0.1-0.1,0.1-0.2,0.1c-0.1,0-0.2,0-0.3-0.1c0-0.1-0.1-0.2-0.1-0.4c0-0.2,0.1-0.6,0.3-1
		c0.2-0.5,0.5-1.1,1-1.9c-0.2-0.1-0.4-0.2-0.5-0.3s-0.2-0.3-0.2-0.4c0-0.3,0.2-0.6,0.5-0.8S280,51.5,280.7,51.3z M281.5,51.5
		l-0.4,0.7c0.2,0,0.3,0,0.5,0c0.1,0,0.3,0,0.4,0c0.9,0,1.6-0.1,2.2-0.3c0.6-0.2,1.1-0.5,1.5-0.9c0.4-0.3,0.6-0.7,0.8-1
		s0.2-0.6,0.2-0.9c0-0.3-0.1-0.6-0.4-0.7c-0.3-0.2-0.6-0.3-1.1-0.4c-0.5-0.1-1.1-0.1-1.8-0.1c0,0.1,0,0.1,0,0.2c0,0.3-0.1,0.6-0.4,1
		l-1.3,2l1-0.1c0.1,0,0.1,0,0.1,0.1c0,0.1-0.1,0.1-0.2,0.1L281.5,51.5z"/>
	<path d="M287.1,54v-0.5c0.3-0.3,0.5-0.6,0.6-0.8c-0.2-0.1-0.3-0.1-0.3-0.2c-0.1-0.1-0.1-0.2-0.1-0.4c0-0.2,0.1-0.4,0.2-0.7
		s0.3-0.5,0.5-0.8s0.4-0.4,0.6-0.5c0.1,0,0.1-0.1,0.2-0.1c0.1,0,0.1,0,0.1,0.1c0,0.1-0.1,0.3-0.2,0.5c1-0.2,1.6-0.2,1.9-0.2
		c0.1,0,0.2,0,0.2,0c0.1,0,0.2,0.1,0.2,0.3s0.1,0.3,0.1,0.5c0,0.1,0,0.2-0.1,0.3c-0.1,0.1-0.2,0.3-0.5,0.5c-0.3,0.3-0.5,0.6-0.7,0.9
		s-0.3,0.6-0.3,0.7c0,0.2,0.1,0.3,0.4,0.3c0.3,0,0.8-0.3,1.6-0.9v0.5c-0.4,0.4-0.7,0.8-1,1s-0.5,0.4-0.7,0.6
		c-0.2,0.1-0.4,0.2-0.6,0.2c-0.2,0-0.4-0.1-0.5-0.3c-0.1-0.2-0.2-0.5-0.2-0.8c0-0.2,0.1-0.4,0.2-0.7s0.3-0.6,0.5-0.9
		c0.2-0.3,0.4-0.6,0.7-0.9c-0.1,0-0.3,0.1-0.5,0.1s-0.4,0.1-0.5,0.1s-0.3,0.1-0.4,0.1C288.1,52.9,287.6,53.5,287.1,54z"/>
	<path d="M296.2,53.4v0.5c-0.3,0.3-0.6,0.5-0.8,0.6c-0.2,0.1-0.5,0.1-0.8,0.1c-0.6,0.8-1.2,1.1-1.7,1.1c-0.3,0-0.5-0.1-0.7-0.3
		s-0.4-0.4-0.5-0.7c-0.1-0.3-0.2-0.7-0.2-1c0-0.3,0.1-0.7,0.3-1c0.2-0.4,0.5-0.7,0.8-1.1c0.3-0.3,0.7-0.6,1.1-0.8s0.7-0.3,1-0.3
		c0.2,0,0.4,0,0.5,0.1c0.1,0.1,0.2,0.2,0.2,0.3c0,0.1-0.1,0.2-0.2,0.3c0.2,0,0.3,0.1,0.4,0.2s0.1,0.3,0.1,0.5c0,0.2-0.1,0.5-0.2,0.9
		c-0.1,0.4-0.3,0.7-0.5,1l0.1,0.1h0.1c0.1,0,0.2,0,0.2-0.1c0.1,0,0.2-0.1,0.2-0.1C295.9,53.6,296,53.5,296.2,53.4z M294.7,51.4
		c-0.4,0.2-0.8,0.5-1,0.7c-0.3,0.2-0.5,0.4-0.7,0.6s-0.3,0.4-0.4,0.6c-0.1,0.5-0.2,0.8-0.2,0.9c0,0.3,0.2,0.5,0.7,0.5
		c0.2,0,0.6-0.2,1.1-0.5c-0.1-0.2-0.1-0.4-0.1-0.7c0-0.3,0.1-0.6,0.2-0.9S294.5,51.9,294.7,51.4z"/>
	<path d="M299.6,53.4c-0.4,0.5-0.8,0.9-1.2,1.2c-0.3,0.3-0.6,0.6-0.8,0.8c-0.2,0.2-0.4,0.3-0.4,0.3c-0.1,0-0.3-0.1-0.4-0.3
		c-0.2-0.2-0.3-0.5-0.4-0.8c-0.1-0.3-0.2-0.6-0.2-1c0-0.5,0.2-1,0.7-1.4c0.5-0.5,1-0.9,1.6-1.2s1-0.5,1.3-0.5c0.2,0,0.5,0.2,0.7,0.5
		c0.4-0.8,0.7-1.5,1.1-2.1c0.3-0.6,0.6-1.1,0.9-1.4c0.2-0.3,0.4-0.4,0.5-0.4c0.1,0,0.2,0.1,0.3,0.2c0.1,0.1,0.1,0.2,0.1,0.4
		c0,0.3-0.2,0.7-0.6,1.3s-0.7,1.2-1.1,1.8c-0.4,0.6-0.7,1.2-0.9,1.7c-0.3,0.6-0.4,1.1-0.4,1.6c0,0.4,0.1,0.7,0.4,0.7
		c0.2,0,0.4-0.1,0.6-0.3c0.3-0.2,0.6-0.5,1.1-1v0.5c-1.1,1.4-1.9,2-2.4,2c-0.2,0-0.4-0.1-0.5-0.3c-0.1-0.2-0.1-0.4-0.1-0.8
		C299.4,54.4,299.4,53.9,299.6,53.4z M300.1,51.6c-0.4,0.1-0.9,0.4-1.5,0.7c-0.6,0.3-0.9,0.5-1.1,0.7c-0.1,0.1-0.2,0.3-0.3,0.5
		s-0.1,0.5-0.1,0.6c0,0.1,0,0.2,0.1,0.2s0.1,0.1,0.2,0.1c0.1,0,0.1,0,0.2-0.1s0.2-0.2,0.4-0.3c0.2-0.2,0.3-0.3,0.4-0.3
		c0.1-0.1,0.3-0.2,0.6-0.5c0.3-0.2,0.5-0.4,0.6-0.6s0.2-0.3,0.3-0.5C300,52,300.1,51.8,300.1,51.6z"/>
	<path d="M305.9,52.9c-0.7,0.9-1.2,1.6-1.6,2c-0.4,0.4-0.7,0.6-0.9,0.6c-0.2,0-0.4-0.1-0.5-0.2c-0.2-0.2-0.3-0.4-0.4-0.6
		c-0.1-0.3-0.1-0.5-0.1-0.8c0-0.2,0-0.4,0.1-0.5c0-0.2,0.1-0.3,0.2-0.5c0.1-0.2,0.2-0.4,0.4-0.6c0.2-0.2,0.4-0.5,0.6-0.7
		c0.1-0.2,0.3-0.3,0.4-0.4c0.1-0.1,0.2-0.2,0.3-0.2c0.1,0,0.2-0.1,0.5-0.1c0.2,0,0.3,0,0.4,0.1c0.1,0,0.2,0.1,0.2,0.1
		c0,0.1-0.1,0.2-0.2,0.5c-0.1,0.2-0.4,0.5-0.7,0.8c-0.3,0.3-0.7,0.7-1.1,1c-0.1,0.3-0.1,0.5-0.1,0.7c0,0.2,0.1,0.3,0.2,0.3
		c0.1,0,0.2,0,0.3-0.1s0.4-0.3,0.7-0.6c0.3-0.3,0.6-0.5,0.9-0.8c0.2-0.2,0.4-0.4,0.7-0.7c0.3-0.3,0.5-0.6,0.6-0.7
		c0.4-0.4,0.6-0.6,0.7-0.7c0.1-0.1,0.3-0.2,0.4-0.2c0.1,0,0.2,0,0.2,0.1c0,0.1,0.1,0.2,0.1,0.4c0,0.1,0,0.2,0,0.2s-0.1,0.1-0.1,0.2
		c-0.1,0.1-0.2,0.3-0.4,0.6s-0.4,0.6-0.7,1c-0.1,0.2-0.3,0.4-0.4,0.6s-0.2,0.4-0.2,0.5c0,0.3,0.1,0.4,0.3,0.4c0.2,0,0.4-0.1,0.6-0.2
		c0.2-0.1,0.6-0.4,1-0.7v0.5c-0.6,0.5-1,0.9-1.3,1.1s-0.5,0.4-0.7,0.5s-0.4,0.2-0.6,0.2c-0.4,0-0.6-0.2-0.6-0.7
		c0-0.2,0.1-0.4,0.2-0.8C305.4,53.9,305.6,53.5,305.9,52.9z"/>
	<path d="M312.6,53.4v0.5c-0.5,0.5-0.9,0.9-1.3,1.2c-0.3,0.3-0.6,0.5-0.9,0.7c-0.3,0.2-0.6,0.2-0.8,0.2c-0.3,0-0.5-0.1-0.7-0.3
		c-0.2-0.2-0.4-0.5-0.5-0.8c-0.1-0.3-0.2-0.7-0.2-1.1c0-0.3,0.1-0.6,0.2-0.9s0.4-0.6,0.8-1c0.5-0.5,1-0.9,1.4-1.1
		c0.4-0.3,0.8-0.4,1-0.4c0.2,0,0.3,0.1,0.4,0.2s0.2,0.3,0.2,0.5c0,0.2-0.1,0.4-0.2,0.7s-0.3,0.5-0.5,0.8c-0.2,0.2-0.4,0.3-0.5,0.3
		c-0.1,0-0.2-0.1-0.2-0.2c0,0,0-0.1,0-0.1c0,0,0-0.1,0-0.1c0-0.1,0-0.1-0.1-0.1c0,0-0.1,0-0.2,0.1c-0.5,0.3-0.8,0.6-1,0.7
		c-0.2,0.1-0.3,0.3-0.4,0.4c-0.1,0.1-0.2,0.3-0.2,0.4c0,0.3,0.1,0.5,0.3,0.7s0.4,0.3,0.7,0.3c0.3,0,0.7-0.1,1.1-0.4
		C311.6,54.2,312.1,53.9,312.6,53.4z"/>
	<path d="M315.2,49.6h0.3c0.3-0.5,0.5-0.8,0.7-1c0.2-0.2,0.4-0.3,0.7-0.3s0.4,0.1,0.4,0.2c0,0.1-0.1,0.2-0.3,0.5s-0.4,0.5-0.5,0.7
		c0.2,0,0.3,0,0.4,0.1c0.1,0,0.2,0,0.3,0c-0.3,0.5-0.6,1-1,1.6c-0.1,0-0.3,0-0.3,0c-0.1,0-0.2,0-0.3,0c-0.1,0-0.2,0-0.3,0
		c-0.3,0.4-0.5,0.8-0.7,1.1c-0.2,0.3-0.3,0.6-0.4,0.9c-0.1,0.3-0.1,0.5-0.1,0.8c0,0.3,0.1,0.5,0.4,0.5c0.2,0,0.4-0.1,0.7-0.3
		c0.3-0.2,0.7-0.5,1.2-0.9v0.5c-1.3,1.4-2.3,2.1-2.9,2.1c-0.2,0-0.4-0.1-0.5-0.3c-0.1-0.2-0.2-0.4-0.2-0.7c0-0.2,0-0.4,0.1-0.6
		c0.1-0.2,0.2-0.6,0.4-1.1c-0.1,0.1-0.1,0.1-0.2,0.2c-0.1,0.1-0.1,0.1-0.2,0.2c-0.1,0-0.1,0.1-0.2,0.1c-0.1,0.1-0.1,0.1-0.2,0.2
		v-0.5c0.5-0.4,1.1-1.2,1.9-2.3c-0.1,0-0.1,0-0.2,0s-0.1,0-0.2,0c-0.3,0-0.5,0-0.6,0.1c-0.1,0-0.1,0-0.2,0c-0.1,0-0.1,0-0.1,0
		s0,0,0,0c0-0.2,0.1-0.4,0.3-0.7c0.2-0.3,0.3-0.5,0.5-0.6c0.1-0.1,0.3-0.2,0.5-0.3C314.5,49.6,314.8,49.6,315.2,49.6z"/>
</g>
<path d="M20.6,298c-0.5,0-1.1,0.2-1.5,0.5c-0.2,0.1-0.3,0.3-0.5,0.5c-0.2,0.2-0.5,0.4-0.8,0.5c-0.4,0.1-0.8,0.1-1.1-0.1
	c-0.5-0.2-0.8-0.7-1.2-1c-0.9-0.5-2-0.4-2.8,0.3c-1,0.9-1.1,2.4-0.2,3.3c0.4,0.5,1.1,0.8,1.8,0.8c0.5,0,1.1-0.2,1.5-0.5
	c0.2-0.2,0.3-0.4,0.5-0.6c0.2-0.2,0.5-0.3,0.8-0.4c0.4-0.1,0.8,0,1.2,0.2c0.5,0.3,0.7,0.7,1.2,1c0.9,0.5,2,0.4,2.8-0.3
	c0.7-0.7,0.9-1.7,0.6-2.6C22.4,298.6,21.5,298,20.6,298"/>
<path d="M18.5,288.2c-0.3,0.5-0.4,1.1-0.3,1.7c0.1,0.3,0.2,0.5,0.2,0.8c0,0.3,0,0.6-0.1,0.9c-0.2,0.4-0.5,0.7-0.9,0.9
	c-0.2,0.1-0.5,0.1-0.8,0.2c-0.3,0.1-0.5,0.2-0.7,0.4c-0.8,0.6-1.1,1.7-0.8,2.7c0.5,1.2,1.8,1.9,3.1,1.4c0.7-0.3,1.3-0.9,1.5-1.6
	c0.1-0.3,0.1-0.6,0.1-0.9c-0.1-0.3-0.1-0.6-0.2-0.9c-0.1-0.5,0-1,0.3-1.4c0.1-0.2,0.3-0.4,0.6-0.5c0.2-0.1,0.5-0.2,0.7-0.2
	c0.5-0.1,1-0.4,1.3-0.8c0.6-0.8,0.7-1.9,0.2-2.8C21.6,286.7,19.4,286.7,18.5,288.2"/>
<path d="M21.6,296.1c0.3,0.5,0.7,0.8,1.2,1c0.2,0.1,0.4,0.1,0.6,0.2c0.3,0.1,0.5,0.2,0.8,0.4c0.3,0.3,0.5,0.7,0.5,1.1
	c0,0.3,0,0.6-0.2,0.9c-0.4,1.2,0.3,2.6,1.5,3c0.1,0,0.2,0.1,0.3,0.1c1,0.2,2-0.3,2.5-1.1c0.7-1.1,0.3-2.6-0.8-3.2
	c-0.2-0.1-0.5-0.2-0.8-0.3c-0.5-0.1-1-0.3-1.3-0.8c-0.3-0.5-0.3-1-0.1-1.5c0.2-0.6,0.2-1.2,0-1.7c-0.5-1.2-1.8-1.8-3.1-1.4
	c-1.2,0.5-1.8,1.8-1.4,3.1C21.5,295.8,21.6,296,21.6,296.1"/>
</svg>
